<svg 
xmlns="http://www.w3.org/2000/svg" 
xmlns:xlink="http://www.w3.org/1999/xlink" width="122" zoomAndPan="magnify" 
viewBox="0 0 91.5 91.499997" height="122" preserveAspectRatio="xMidYMid meet" version="1.0"><defs><clipPath id="fddabb80d0">
<path d="M 5.289062 5.289062 L 86.210938 5.289062 L 86.210938 86.210938 L 5.289062 86.210938 Z M 5.289062 5.289062 " clip-rule="nonzero"/>
</clipPath><clipPath id="ceb39aa737"><path d="M 45.75 5.289062 C 23.402344 5.289062 5.289062 23.402344 5.289062 45.75 C 5.289062 68.097656 23.402344 86.210938 45.75 86.210938 C 68.097656 86.210938 86.210938 68.097656 86.210938 45.75 C 86.210938 23.402344 68.097656 5.289062 45.75 5.289062 " clip-rule="nonzero"/></clipPath><clipPath id="c4c77c78b1"><path d="M 26.40625 23.996094 L 65.40625 23.996094 L 65.40625 67.496094 L 26.40625 67.496094 Z M 26.40625 23.996094 " clip-rule="nonzero"/></clipPath></defs><g clip-path="url(#fddabb80d0)"><g clip-path="url(#ceb39aa737)"><path fill="#ffffff" d="M 5.289062 5.289062 L 86.210938 5.289062 L 86.210938 86.210938 L 5.289062 86.210938 Z M 5.289062 5.289062 " fill-opacity="1" fill-rule="nonzero"/></g></g><g clip-path="url(#c4c77c78b1)"><path fill="#000000" d="M 64.738281 38.484375 C 64.210938 37.867188 63.441406 37.511719 62.625 37.511719 L 56.710938 37.511719 L 56.710938 34.359375 C 56.816406 34.382812 56.933594 34.402344 57.070312 34.402344 C 57.535156 34.402344 58.136719 34.214844 58.585938 33.542969 C 59.128906 32.726562 58.765625 31.863281 58.398438 31.382812 C 58.652344 30.886719 59.09375 29.671875 58.269531 28.34375 C 57.097656 26.457031 55.023438 26.472656 54.300781 26.542969 C 54.023438 26.097656 53.277344 25.140625 51.90625 24.964844 C 50.648438 24.800781 49.753906 25.382812 49.316406 25.757812 C 48.785156 25.171875 47.425781 23.996094 45.101562 23.996094 C 42.972656 23.996094 41.476562 24.832031 40.929688 25.195312 C 40.609375 24.972656 39.960938 24.640625 38.992188 24.640625 C 37.980469 24.640625 37.164062 25.191406 36.757812 25.53125 C 36.226562 25.019531 34.859375 24.023438 32.511719 24.320312 C 28.996094 24.761719 28.445312 27.75 28.363281 28.613281 C 27.8125 28.871094 26.417969 29.703125 26.417969 31.46875 C 26.417969 32.789062 27.113281 33.765625 27.703125 34.15625 L 27.703125 63.609375 C 27.703125 63.65625 27.714844 63.707031 27.734375 63.75 C 27.90625 64.132812 29.488281 67.496094 31.269531 67.496094 L 53.148438 67.496094 C 54.929688 67.496094 56.507812 64.132812 56.679688 63.75 C 56.703125 63.707031 56.710938 63.65625 56.710938 63.609375 L 56.710938 58.480469 L 62.625 58.480469 C 63.441406 58.480469 64.210938 58.128906 64.738281 57.511719 C 65.164062 57.015625 65.398438 56.382812 65.398438 55.730469 L 65.398438 40.261719 C 65.398438 39.613281 65.164062 38.980469 64.738281 38.484375 Z M 56.710938 41.101562 L 61.675781 41.101562 L 62.449219 41.972656 L 62.449219 54.023438 L 61.675781 54.894531 L 56.710938 54.894531 Z M 27.113281 31.46875 C 27.113281 29.808594 28.746094 29.195312 28.8125 29.171875 C 28.949219 29.121094 29.042969 28.992188 29.042969 28.847656 C 29.042969 28.710938 29.117188 25.441406 32.601562 25.003906 C 35.234375 24.671875 36.410156 26.160156 36.460938 26.222656 C 36.519531 26.304688 36.617188 26.355469 36.71875 26.363281 C 36.824219 26.367188 36.921875 26.328125 36.992188 26.253906 C 37.003906 26.242188 37.867188 25.328125 38.992188 25.328125 C 40.101562 25.328125 40.652344 25.851562 40.675781 25.871094 C 40.800781 25.996094 41 26.007812 41.140625 25.898438 C 41.152344 25.886719 42.695312 24.683594 45.101562 24.683594 C 47.75 24.683594 48.949219 26.390625 48.996094 26.464844 C 49.058594 26.554688 49.160156 26.609375 49.269531 26.617188 C 49.378906 26.617188 49.484375 26.574219 49.554688 26.492188 C 49.589844 26.449219 50.429688 25.46875 51.816406 25.648438 C 53.191406 25.824219 53.773438 27.011719 53.796875 27.058594 C 53.863281 27.203125 54.019531 27.285156 54.175781 27.253906 C 54.199219 27.25 56.519531 26.84375 57.675781 28.707031 C 58.488281 30.015625 57.71875 31.179688 57.6875 31.226562 C 57.589844 31.363281 57.609375 31.546875 57.722656 31.664062 C 57.753906 31.695312 58.480469 32.445312 58.003906 33.164062 C 57.519531 33.890625 56.875 33.695312 56.804688 33.671875 C 56.773438 33.660156 56.742188 33.660156 56.710938 33.65625 L 56.710938 32.710938 C 56.710938 32.519531 56.554688 32.363281 56.363281 32.363281 L 51.859375 32.363281 C 51.84375 32.363281 51.832031 32.371094 51.816406 32.375 C 51.792969 32.375 51.769531 32.378906 51.75 32.386719 C 51.726562 32.394531 51.707031 32.402344 51.6875 32.414062 C 51.671875 32.425781 51.652344 32.4375 51.636719 32.449219 C 51.617188 32.464844 51.605469 32.484375 51.589844 32.5 C 51.578125 32.519531 51.5625 32.535156 51.554688 32.554688 C 51.542969 32.574219 51.535156 32.597656 51.53125 32.621094 C 51.527344 32.632812 51.519531 32.644531 51.515625 32.660156 C 51.511719 32.679688 51.195312 34.714844 49.496094 35.28125 C 47.820312 35.839844 46.351562 34.117188 46.335938 34.097656 C 46.277344 34.027344 46.1875 33.980469 46.089844 33.976562 C 45.996094 33.972656 45.902344 34.003906 45.832031 34.066406 C 45.824219 34.074219 45.257812 34.566406 44.222656 34.304688 C 43.128906 34.03125 42.535156 32.597656 42.53125 32.582031 C 42.476562 32.453125 42.347656 32.363281 42.207031 32.363281 L 34.808594 32.363281 C 34.800781 32.363281 34.796875 32.367188 34.792969 32.367188 C 34.773438 32.367188 34.753906 32.375 34.738281 32.378906 C 34.710938 32.382812 34.683594 32.390625 34.660156 32.398438 C 34.644531 32.40625 34.632812 32.417969 34.621094 32.425781 C 34.597656 32.441406 34.574219 32.457031 34.554688 32.476562 C 34.542969 32.488281 34.535156 32.503906 34.523438 32.519531 C 34.511719 32.542969 34.492188 32.5625 34.484375 32.589844 C 34.484375 32.59375 34.480469 32.59375 34.476562 32.601562 C 34.46875 32.628906 34.214844 33.332031 33.519531 33.332031 C 32.800781 33.332031 32.554688 32.890625 32.546875 32.878906 C 32.488281 32.761719 32.367188 32.691406 32.238281 32.6875 C 32.105469 32.695312 31.984375 32.761719 31.925781 32.875 C 31.914062 32.890625 31.667969 33.332031 30.945312 33.332031 C 30.25 33.332031 30 32.628906 29.992188 32.601562 C 29.941406 32.460938 29.808594 32.363281 29.660156 32.363281 L 28.050781 32.363281 C 27.859375 32.363281 27.703125 32.519531 27.703125 32.710938 L 27.703125 33.21875 C 27.398438 32.835938 27.113281 32.230469 27.113281 31.46875 Z M 51.511719 63.90625 L 48.992188 63.90625 L 48.992188 38.503906 C 48.992188 38.484375 49.003906 36.59375 50.25 36.59375 C 51.492188 36.59375 51.511719 38.425781 51.511719 38.503906 Z M 50.25 35.902344 C 48.703125 35.902344 48.292969 37.605469 48.292969 38.503906 L 48.292969 63.90625 L 43.84375 63.90625 L 43.84375 38.503906 C 43.84375 37.605469 43.433594 35.902344 41.886719 35.902344 C 40.339844 35.902344 39.929688 37.605469 39.929688 38.503906 L 39.929688 63.90625 L 36.121094 63.90625 L 36.121094 38.503906 C 36.121094 37.605469 35.710938 35.902344 34.164062 35.902344 C 32.617188 35.902344 32.207031 37.605469 32.207031 38.503906 L 32.207031 63.800781 C 31.375 63.394531 30.402344 61.890625 29.898438 60.855469 L 29.898438 33.636719 C 30.144531 33.847656 30.484375 34.019531 30.945312 34.019531 C 31.574219 34.019531 31.988281 33.789062 32.234375 33.566406 C 32.480469 33.785156 32.890625 34.019531 33.519531 34.019531 C 34.398438 34.019531 34.847656 33.40625 35.03125 33.054688 L 41.984375 33.054688 C 42.222656 33.539062 42.898438 34.6875 44.054688 34.976562 C 44.992188 35.210938 45.664062 34.96875 46.015625 34.769531 C 46.449219 35.203125 47.492188 36.085938 48.796875 36.085938 C 49.089844 36.085938 49.398438 36.039062 49.71875 35.933594 C 51.410156 35.367188 51.976562 33.730469 52.144531 33.054688 L 54.40625 33.054688 L 54.40625 60.933594 C 53.9375 61.941406 53.019531 63.398438 52.207031 63.800781 L 52.207031 38.503906 C 52.207031 37.605469 51.800781 35.902344 50.25 35.902344 Z M 40.625 63.90625 L 40.625 38.503906 C 40.625 38.484375 40.640625 36.59375 41.886719 36.59375 C 43.125 36.59375 43.148438 38.425781 43.148438 38.503906 L 43.148438 63.90625 Z M 32.902344 63.90625 L 32.902344 38.503906 C 32.902344 38.484375 32.917969 36.59375 34.164062 36.59375 C 35.40625 36.59375 35.425781 38.425781 35.425781 38.503906 L 35.425781 63.90625 Z M 56.015625 63.535156 C 55.417969 64.828125 54.136719 66.804688 53.148438 66.804688 L 31.269531 66.804688 C 30.277344 66.804688 29 64.828125 28.398438 63.535156 L 28.398438 33.054688 L 29.199219 33.054688 L 29.199219 60.933594 C 29.199219 60.9375 29.203125 60.941406 29.203125 60.941406 C 29.203125 60.964844 29.210938 60.988281 29.214844 61.011719 C 29.222656 61.03125 29.222656 61.054688 29.234375 61.074219 C 29.234375 61.078125 29.234375 61.082031 29.234375 61.082031 C 29.402344 61.433594 30.886719 64.4375 32.484375 64.582031 C 32.507812 64.589844 32.53125 64.597656 32.554688 64.597656 C 32.5625 64.597656 32.566406 64.59375 32.574219 64.59375 C 32.585938 64.59375 32.597656 64.597656 32.605469 64.597656 L 51.808594 64.597656 C 51.820312 64.597656 51.832031 64.59375 51.839844 64.59375 C 51.847656 64.59375 51.851562 64.597656 51.859375 64.597656 C 51.882812 64.597656 51.90625 64.589844 51.925781 64.585938 C 53.527344 64.441406 54.917969 61.496094 55.074219 61.152344 C 55.09375 61.105469 55.105469 61.058594 55.105469 61.007812 L 55.105469 33.054688 L 56.015625 33.054688 Z M 64.703125 55.734375 C 64.703125 56.222656 64.527344 56.695312 64.207031 57.066406 C 63.8125 57.527344 63.238281 57.792969 62.625 57.792969 L 56.710938 57.792969 L 56.710938 55.585938 L 61.832031 55.585938 C 61.933594 55.585938 62.027344 55.542969 62.09375 55.46875 L 63.058594 54.382812 C 63.117188 54.320312 63.148438 54.238281 63.148438 54.152344 L 63.148438 41.84375 C 63.148438 41.757812 63.117188 41.675781 63.058594 41.613281 L 62.09375 40.527344 C 62.027344 40.453125 61.933594 40.410156 61.832031 40.410156 L 56.710938 40.410156 L 56.710938 38.203125 L 62.625 38.203125 C 63.238281 38.203125 63.8125 38.46875 64.207031 38.929688 C 64.527344 39.300781 64.703125 39.777344 64.703125 40.261719 Z M 64.703125 55.734375 " fill-opacity="1" fill-rule="nonzero"/></g><path fill="#000000" d="M 49.285156 32.730469 C 50.363281 32.730469 51.242188 31.855469 51.242188 30.777344 C 51.242188 29.699219 50.363281 28.824219 49.285156 28.824219 C 48.207031 28.824219 47.328125 29.699219 47.328125 30.777344 C 47.328125 31.855469 48.207031 32.730469 49.285156 32.730469 Z M 49.285156 29.511719 C 49.980469 29.511719 50.546875 30.082031 50.546875 30.777344 C 50.546875 31.476562 49.980469 32.042969 49.285156 32.042969 C 48.589844 32.042969 48.023438 31.476562 48.023438 30.777344 C 48.023438 30.082031 48.589844 29.511719 49.285156 29.511719 Z M 49.285156 29.511719 " fill-opacity="1" fill-rule="nonzero"/><path fill="#000000" d="M 53.789062 30.503906 C 54.515625 30.503906 55.105469 29.914062 55.105469 29.191406 C 55.105469 28.46875 54.515625 27.882812 53.789062 27.882812 C 53.066406 27.882812 52.476562 28.46875 52.476562 29.191406 C 52.476562 29.914062 53.066406 30.503906 53.789062 30.503906 Z M 53.789062 28.570312 C 54.128906 28.570312 54.40625 28.851562 54.40625 29.191406 C 54.40625 29.535156 54.128906 29.8125 53.789062 29.8125 C 53.449219 29.8125 53.171875 29.535156 53.171875 29.191406 C 53.171875 28.851562 53.449219 28.570312 53.789062 28.570312 Z M 53.789062 28.570312 " fill-opacity="1" fill-rule="nonzero"/><path fill="#000000" d="M 33.0625 31.546875 C 33.886719 31.546875 34.558594 30.875 34.558594 30.050781 C 34.558594 29.226562 33.886719 28.554688 33.0625 28.554688 C 32.234375 28.554688 31.5625 29.226562 31.5625 30.050781 C 31.5625 30.875 32.234375 31.546875 33.0625 31.546875 Z M 33.0625 29.246094 C 33.503906 29.246094 33.863281 29.605469 33.863281 30.050781 C 33.863281 30.496094 33.503906 30.855469 33.0625 30.855469 C 32.621094 30.855469 32.261719 30.496094 32.261719 30.050781 C 32.261719 29.605469 32.621094 29.246094 33.0625 29.246094 Z M 33.0625 29.246094 " fill-opacity="1" fill-rule="nonzero"/><path fill="#000000" d="M 34.441406 28.328125 C 35.011719 28.328125 35.476562 27.863281 35.476562 27.292969 C 35.476562 26.722656 35.011719 26.257812 34.441406 26.257812 C 33.867188 26.257812 33.402344 26.722656 33.402344 27.292969 C 33.402344 27.863281 33.867188 28.328125 34.441406 28.328125 Z M 34.441406 26.949219 C 34.628906 26.949219 34.78125 27.101562 34.78125 27.292969 C 34.78125 27.480469 34.628906 27.636719 34.441406 27.636719 C 34.25 27.636719 34.097656 27.480469 34.097656 27.292969 C 34.097656 27.101562 34.25 26.949219 34.441406 26.949219 Z M 34.441406 26.949219 " fill-opacity="1" fill-rule="nonzero"/><path fill="#000000" d="M 40.964844 30.800781 C 41.539062 30.800781 42.003906 30.335938 42.003906 29.765625 C 42.003906 29.195312 41.539062 28.730469 40.964844 28.730469 C 40.394531 28.730469 39.929688 29.195312 39.929688 29.765625 C 39.929688 30.335938 40.394531 30.800781 40.964844 30.800781 Z M 40.964844 29.421875 C 41.15625 29.421875 41.308594 29.574219 41.308594 29.765625 C 41.308594 29.957031 41.15625 30.109375 40.964844 30.109375 C 40.777344 30.109375 40.625 29.957031 40.625 29.765625 C 40.625 29.578125 40.777344 29.421875 40.964844 29.421875 Z M 40.964844 29.421875 " fill-opacity="1" fill-rule="nonzero"/></svg>