<svg xmlns="http://www.w3.org/2000/svg" xmlns:xlink="http://www.w3.org/1999/xlink" width="122" zoomAndPan="magnify" viewBox="0 0 91.5 91.499997" height="122" preserveAspectRatio="xMidYMid meet" version="1.0"><defs><clipPath id="0f8bca25fd"><path d="M 5.289062 5.289062 L 86.210938 5.289062 L 86.210938 86.210938 L 5.289062 86.210938 Z M 5.289062 5.289062 " clip-rule="nonzero"/></clipPath><clipPath id="52465c2565"><path d="M 45.75 5.289062 C 23.402344 5.289062 5.289062 23.402344 5.289062 45.75 C 5.289062 68.097656 23.402344 86.210938 45.75 86.210938 C 68.097656 86.210938 86.210938 68.097656 86.210938 45.75 C 86.210938 23.402344 68.097656 5.289062 45.75 5.289062 " clip-rule="nonzero"/></clipPath><clipPath id="7e0a0eb0ca"><path d="M 30.195312 25 L 44 25 L 44 37 L 30.195312 37 Z M 30.195312 25 " clip-rule="nonzero"/></clipPath><clipPath id="f4c86ed361"><path d="M 31.050781 19.988281 L 60.941406 19.988281 L 60.941406 71.738281 L 31.050781 71.738281 Z M 31.050781 19.988281 " clip-rule="nonzero"/></clipPath></defs><g clip-path="url(#0f8bca25fd)"><g clip-path="url(#52465c2565)"><path fill="#ffffff" d="M 5.289062 5.289062 L 86.210938 5.289062 L 86.210938 86.210938 L 5.289062 86.210938 Z M 5.289062 5.289062 " fill-opacity="1" fill-rule="nonzero"/></g></g><path fill="#000000" d="M 36.523438 30.679688 L 36.523438 26.855469 C 35.445312 26.945312 34.464844 27.378906 33.683594 28.046875 L 36.273438 30.679688 L 36.523438 30.679688 " fill-opacity="1" fill-rule="nonzero"/><path fill="#000000" d="M 33.011719 35.179688 L 33.972656 32.390625 L 31.914062 32.390625 C 31.996094 33.421875 32.375 34.382812 33.011719 35.179688 " fill-opacity="1" fill-rule="nonzero"/><path fill="#000000" d="M 36.523438 33.394531 C 36.367188 33.539062 36.25 33.800781 36.078125 34.242188 L 35.242188 36.792969 C 35.65625 36.941406 36.082031 37.039062 36.523438 37.078125 L 36.523438 33.394531 " fill-opacity="1" fill-rule="nonzero"/><path fill="#000000" d="M 41.835938 33.246094 L 38.800781 33.246094 L 40.804688 35.28125 C 41.285156 34.703125 41.640625 34.015625 41.835938 33.246094 " fill-opacity="1" fill-rule="nonzero"/><path fill="#000000" d="M 37.609375 33.246094 L 37.363281 33.246094 L 37.363281 37.078125 C 38.441406 36.988281 39.425781 36.5625 40.210938 35.886719 L 37.609375 33.246094 " fill-opacity="1" fill-rule="nonzero"/><g clip-path="url(#7e0a0eb0ca)"><path fill="#000000" d="M 32.695312 36.101562 C 31.636719 34.984375 31.050781 33.527344 31.050781 31.964844 C 31.050781 28.664062 33.695312 25.976562 36.941406 25.976562 C 39.738281 25.976562 42.109375 27.9375 42.695312 30.679688 L 43.554688 30.679688 C 42.953125 27.488281 40.183594 25.121094 36.941406 25.121094 C 33.226562 25.121094 30.207031 28.191406 30.207031 31.964844 C 30.207031 33.894531 31.003906 35.695312 32.386719 36.992188 L 32.695312 36.101562 " fill-opacity="1" fill-rule="nonzero"/></g><path fill="#000000" d="M 40.804688 28.648438 L 38.800781 30.679688 L 41.835938 30.679688 C 41.640625 29.914062 41.285156 29.222656 40.804688 28.648438 " fill-opacity="1" fill-rule="nonzero"/><path fill="#000000" d="M 43.554688 33.246094 L 42.695312 33.246094 C 42.109375 35.992188 39.738281 37.953125 36.941406 37.953125 C 36.265625 37.953125 35.605469 37.832031 34.976562 37.601562 L 34.710938 38.414062 C 35.425781 38.671875 36.171875 38.808594 36.941406 38.808594 C 40.183594 38.808594 42.953125 36.441406 43.554688 33.246094 " fill-opacity="1" fill-rule="nonzero"/><path fill="#000000" d="M 37.363281 30.679688 L 37.609375 30.679688 L 40.210938 28.039062 C 39.425781 27.367188 38.441406 26.941406 37.363281 26.851562 L 37.363281 30.679688 " fill-opacity="1" fill-rule="nonzero"/><path fill="#000000" d="M 35.242188 30.84375 L 33.089844 28.652344 C 32.429688 29.445312 32 30.441406 31.914062 31.535156 L 34.386719 31.535156 C 34.617188 31.207031 34.902344 30.980469 35.242188 30.84375 " fill-opacity="1" fill-rule="nonzero"/><path fill="#000000" d="M 55.886719 40.519531 L 53.359375 40.519531 C 52.894531 40.519531 52.515625 40.902344 52.515625 41.375 L 52.515625 43.339844 L 53.953125 44.796875 L 55.886719 44.796875 C 56.347656 44.796875 56.726562 44.410156 56.726562 43.941406 L 56.726562 41.375 C 56.726562 40.902344 56.347656 40.519531 55.886719 40.519531 " fill-opacity="1" fill-rule="nonzero"/><path fill="#000000" d="M 48.308594 44.605469 L 48.308594 43.085938 C 48.308594 42.613281 47.929688 42.230469 47.464844 42.230469 L 44.941406 42.230469 C 44.476562 42.230469 44.097656 42.613281 44.097656 43.085938 L 44.097656 45.652344 C 44.097656 45.671875 44.105469 45.691406 44.105469 45.714844 C 44.542969 45.828125 44.90625 46.117188 45.128906 46.507812 L 47.464844 46.507812 C 47.46875 46.507812 47.472656 46.503906 47.476562 46.503906 C 47.472656 46.46875 47.464844 46.4375 47.464844 46.402344 C 47.449219 45.859375 47.652344 45.292969 47.996094 44.925781 L 48.308594 44.605469 " fill-opacity="1" fill-rule="nonzero"/><path fill="#000000" d="M 51.789062 43.808594 C 51.578125 43.609375 51.304688 43.507812 51.035156 43.507812 C 50.761719 43.507812 50.488281 43.609375 50.273438 43.816406 L 49.027344 45.085938 C 49.027344 45.085938 49.027344 45.085938 49.023438 45.085938 L 48.597656 45.519531 C 48.417969 45.714844 48.296875 46.0625 48.304688 46.378906 C 48.3125 46.566406 48.367188 46.832031 48.585938 47.042969 L 50.28125 48.765625 C 50.792969 49.234375 51.445312 49.117188 51.789062 48.765625 L 53.464844 47.0625 C 53.816406 46.664062 53.9375 45.988281 53.476562 45.519531 L 51.789062 43.808594 " fill-opacity="1" fill-rule="nonzero"/><g clip-path="url(#f4c86ed361)"><path fill="#000000" d="M 46.203125 57.625 C 44.75 57.625 43.9375 57.042969 42.558594 55.808594 L 34.558594 48.535156 C 32.398438 46.496094 31.796875 44.179688 32.761719 41.648438 L 33.257812 40.132812 L 35.28125 33.96875 C 35.574219 33.210938 35.890625 32.390625 36.941406 32.390625 L 55.042969 32.390625 C 56.097656 32.390625 56.414062 33.210938 56.691406 33.929688 L 59.644531 41.644531 C 60.609375 44.179688 60.007812 46.496094 57.855469 48.527344 L 49.851562 55.804688 C 48.46875 57.042969 47.65625 57.625 46.203125 57.625 Z M 48.867188 58.167969 L 58.945312 48.761719 C 60.824219 46.910156 61.441406 43.894531 60.519531 41.082031 L 57.160156 32.550781 C 56.890625 31.828125 56.519531 31.535156 55.867188 31.535156 L 46.019531 31.535156 C 46.398438 30.792969 46.769531 30.082031 47.132812 29.402344 C 48.441406 29.421875 49.957031 29.890625 51.019531 30.609375 C 51.09375 30.660156 51.175781 30.679688 51.253906 30.679688 C 51.390625 30.679688 51.523438 30.613281 51.605469 30.492188 C 51.734375 30.292969 51.683594 30.027344 51.488281 29.898438 C 50.417969 29.171875 48.933594 28.671875 47.578125 28.566406 C 47.742188 28.265625 47.902344 27.972656 48.0625 27.6875 C 49.585938 27.691406 49.984375 27.71875 51.941406 28.511719 C 51.992188 28.53125 52.042969 28.542969 52.097656 28.542969 C 52.265625 28.542969 52.421875 28.441406 52.488281 28.273438 C 52.574219 28.054688 52.46875 27.804688 52.253906 27.71875 C 50.375 26.957031 49.773438 26.847656 48.542969 26.835938 C 48.796875 26.386719 49.046875 25.957031 49.292969 25.550781 C 50.457031 25.550781 51.21875 25.582031 52.75 26.359375 C 52.808594 26.390625 52.875 26.40625 52.9375 26.40625 C 53.09375 26.40625 53.242188 26.316406 53.316406 26.167969 C 53.417969 25.957031 53.335938 25.699219 53.128906 25.59375 C 51.671875 24.855469 50.785156 24.722656 49.808594 24.699219 C 50 24.394531 50.183594 24.105469 50.363281 23.828125 C 50.382812 23.832031 50.394531 23.839844 50.414062 23.839844 C 50.429688 23.839844 52.046875 23.84375 53.226562 24.246094 C 53.269531 24.257812 53.316406 24.265625 53.359375 24.265625 C 53.535156 24.265625 53.699219 24.152344 53.757812 23.972656 C 53.832031 23.75 53.714844 23.507812 53.492188 23.433594 C 52.605469 23.132812 51.539062 23.03125 50.925781 23 C 51.640625 21.972656 52.273438 21.203125 52.796875 20.738281 C 52.96875 20.582031 52.988281 20.3125 52.835938 20.136719 C 52.683594 19.957031 52.414062 19.9375 52.238281 20.09375 C 51.65625 20.613281 51 21.417969 50.3125 22.394531 C 50.207031 21.753906 49.980469 20.910156 49.5 20.179688 C 49.371094 19.984375 49.109375 19.929688 48.917969 20.0625 C 48.722656 20.191406 48.671875 20.457031 48.800781 20.65625 C 49.558594 21.808594 49.570312 23.394531 49.570312 23.410156 C 49.570312 23.433594 49.582031 23.453125 49.585938 23.472656 C 49.402344 23.75 49.222656 24.039062 49.039062 24.332031 C 48.894531 23.421875 48.554688 22.203125 47.765625 21.398438 C 47.597656 21.230469 47.332031 21.230469 47.167969 21.398438 C 47.003906 21.566406 47.003906 21.835938 47.167969 22.003906 C 48.289062 23.140625 48.308594 25.519531 48.308594 25.550781 C 48.136719 25.839844 47.964844 26.136719 47.796875 26.4375 C 47.660156 25.390625 47.328125 23.949219 46.5 23.109375 C 46.335938 22.941406 46.070312 22.941406 45.90625 23.109375 C 45.742188 23.277344 45.742188 23.546875 45.90625 23.714844 C 47.027344 24.855469 47.046875 27.660156 47.046875 27.6875 C 47.046875 27.710938 47.054688 27.730469 47.058594 27.753906 C 46.878906 28.085938 46.699219 28.417969 46.519531 28.75 C 46.378906 27.59375 46.042969 26.0625 45.238281 25.246094 C 45.074219 25.078125 44.808594 25.078125 44.644531 25.246094 C 44.480469 25.414062 44.480469 25.683594 44.644531 25.851562 C 45.542969 26.765625 45.765625 29.175781 45.78125 30.152344 C 45.535156 30.625 45.300781 31.085938 45.070312 31.535156 L 36.101562 31.535156 C 35.449219 31.535156 35.074219 31.828125 34.8125 32.542969 L 31.867188 41.089844 C 30.945312 43.898438 31.5625 46.914062 33.445312 48.765625 L 43.542969 58.164062 C 43.617188 58.238281 43.664062 58.335938 43.675781 58.4375 L 44.519531 66.992188 C 44.539062 67.210938 44.394531 67.410156 44.179688 67.453125 C 40.453125 68.210938 37.976562 69.265625 36.390625 70.769531 C 36.191406 70.960938 36.09375 71.171875 36.101562 71.398438 C 36.105469 71.5625 36.160156 71.679688 36.203125 71.738281 L 56.207031 71.738281 C 56.246094 71.679688 56.300781 71.5625 56.304688 71.398438 C 56.3125 71.167969 56.214844 70.960938 56.015625 70.769531 C 54.429688 69.265625 51.953125 68.210938 48.226562 67.453125 C 48.015625 67.410156 47.867188 67.210938 47.890625 66.992188 L 48.730469 58.4375 C 48.742188 58.335938 48.789062 58.238281 48.867188 58.167969 " fill-opacity="1" fill-rule="nonzero"/></g><path fill="#000000" d="M 44.519531 49.925781 L 44.519531 47.363281 C 44.519531 46.917969 44.183594 46.554688 43.757812 46.515625 C 43.757812 46.515625 43.753906 46.515625 43.753906 46.515625 C 43.730469 46.511719 43.703125 46.507812 43.679688 46.507812 L 41.152344 46.507812 C 40.6875 46.507812 40.308594 46.890625 40.308594 47.363281 L 40.308594 49.925781 C 40.308594 50.398438 40.6875 50.78125 41.152344 50.78125 L 43.679688 50.78125 C 44.140625 50.78125 44.519531 50.398438 44.519531 49.925781 " fill-opacity="1" fill-rule="nonzero"/><path fill="#000000" d="M 47.585938 49.375 C 47.152344 48.972656 46.496094 48.96875 46.066406 49.382812 L 45.34375 50.121094 C 45.265625 50.808594 44.789062 51.371094 44.152344 51.5625 C 44.054688 51.914062 44.089844 52.332031 44.378906 52.609375 L 46.074219 54.332031 C 46.585938 54.796875 47.238281 54.683594 47.585938 54.332031 L 49.269531 52.621094 C 49.617188 52.226562 49.738281 51.5625 49.269531 51.085938 L 47.585938 49.375 " fill-opacity="1" fill-rule="nonzero"/><path fill="#000000" d="M 46.066406 38.828125 C 50.535156 37.402344 54.316406 37.125 57.339844 37.988281 L 55.914062 34.257812 C 55.617188 33.488281 55.484375 33.246094 55.042969 33.246094 L 44.40625 33.246094 C 43.796875 36.921875 40.640625 39.664062 36.941406 39.664062 C 36.082031 39.664062 35.246094 39.507812 34.445312 39.226562 L 34.195312 39.984375 C 37.429688 40.949219 41.011719 40.597656 46.066406 38.828125 " fill-opacity="1" fill-rule="nonzero"/><path fill="#000000" d="M 41.554688 45.652344 C 41.527344 45.472656 41.445312 45.277344 41.269531 45.097656 L 39.585938 43.386719 C 39.15625 42.984375 38.496094 42.984375 38.070312 43.394531 L 36.394531 45.097656 C 36.210938 45.292969 36.09375 45.640625 36.101562 45.953125 C 36.109375 46.144531 36.160156 46.410156 36.382812 46.621094 L 38.078125 48.34375 C 38.535156 48.761719 39.105469 48.710938 39.46875 48.441406 L 39.46875 47.363281 C 39.46875 46.417969 40.222656 45.652344 41.152344 45.652344 L 41.554688 45.652344 " fill-opacity="1" fill-rule="nonzero"/></svg>