<svg xmlns="http://www.w3.org/2000/svg" xmlns:xlink="http://www.w3.org/1999/xlink" width="122" zoomAndPan="magnify" viewBox="0 0 91.5 91.499997" height="122" preserveAspectRatio="xMidYMid meet" version="1.0"><defs><clipPath id="857d1b009c"><path d="M 5.289062 5.289062 L 86.210938 5.289062 L 86.210938 86.210938 L 5.289062 86.210938 Z M 5.289062 5.289062 " clip-rule="nonzero"/></clipPath><clipPath id="6ba12da588"><path d="M 45.75 5.289062 C 23.402344 5.289062 5.289062 23.402344 5.289062 45.75 C 5.289062 68.097656 23.402344 86.210938 45.75 86.210938 C 68.097656 86.210938 86.210938 68.097656 86.210938 45.75 C 86.210938 23.402344 68.097656 5.289062 45.75 5.289062 " clip-rule="nonzero"/></clipPath><clipPath id="598906d77f"><path d="M 21.734375 20.503906 L 46 20.503906 L 46 70.753906 L 21.734375 70.753906 Z M 21.734375 20.503906 " clip-rule="nonzero"/></clipPath><clipPath id="6dc8a767ca"><path d="M 46 48 L 69.734375 48 L 69.734375 70.753906 L 46 70.753906 Z M 46 48 " clip-rule="nonzero"/></clipPath></defs><g clip-path="url(#857d1b009c)"><g clip-path="url(#6ba12da588)"><path fill="#ffffff" d="M 5.289062 5.289062 L 86.210938 5.289062 L 86.210938 86.210938 L 5.289062 86.210938 Z M 5.289062 5.289062 " fill-opacity="1" fill-rule="nonzero"/></g></g><g clip-path="url(#598906d77f)"><path fill="#000000" d="M 42.9375 69.496094 L 24.40625 69.496094 C 23.757812 69.496094 23.210938 69.0625 23.03125 68.472656 L 44.308594 68.472656 C 44.132812 69.0625 43.585938 69.496094 42.9375 69.496094 Z M 24.191406 44.566406 L 28.023438 41.625 C 28.824219 41.011719 29.265625 40.035156 29.210938 39.015625 C 29.140625 37.777344 29.246094 36.027344 30.136719 34.726562 C 30.617188 34.023438 30.988281 33.167969 31.257812 32.289062 L 36.082031 32.289062 C 36.355469 33.167969 36.726562 34.023438 37.203125 34.726562 C 38.097656 36.027344 38.199219 37.777344 38.132812 39.015625 C 38.078125 40.035156 38.519531 41.011719 39.320312 41.625 L 43.152344 44.5625 C 43.929688 45.296875 44.375 46.328125 44.375 47.390625 L 44.375 67.246094 L 22.964844 67.246094 L 22.964844 47.390625 C 22.964844 46.328125 23.414062 45.296875 24.191406 44.566406 Z M 30.574219 22.367188 C 30.574219 22.011719 30.867188 21.722656 31.222656 21.722656 L 36.117188 21.722656 C 36.476562 21.722656 36.769531 22.011719 36.769531 22.367188 L 36.769531 27.46875 C 36.769531 27.824219 36.476562 28.117188 36.117188 28.117188 L 31.222656 28.117188 C 30.867188 28.117188 30.574219 27.824219 30.574219 27.46875 Z M 35.523438 29.34375 C 35.558594 29.875 35.640625 30.457031 35.765625 31.058594 L 31.578125 31.058594 C 31.703125 30.457031 31.785156 29.875 31.820312 29.34375 Z M 43.972656 43.648438 C 43.957031 43.632812 43.945312 43.621094 43.929688 43.609375 L 40.074219 40.652344 C 39.59375 40.285156 39.332031 39.699219 39.363281 39.082031 C 39.445312 37.65625 39.308594 35.621094 38.226562 34.03125 C 37.261719 32.625 36.839844 30.558594 36.753906 29.230469 C 37.480469 28.964844 38 28.28125 38 27.46875 L 38 22.367188 C 38 21.332031 37.15625 20.492188 36.117188 20.492188 L 31.222656 20.492188 C 30.183594 20.492188 29.339844 21.332031 29.339844 22.367188 L 29.339844 27.46875 C 29.339844 28.28125 29.863281 28.964844 30.589844 29.230469 C 30.503906 30.558594 30.082031 32.625 29.117188 34.03125 C 28.03125 35.621094 27.898438 37.65625 27.976562 39.082031 C 28.011719 39.699219 27.746094 40.285156 27.269531 40.652344 L 23.414062 43.609375 C 23.398438 43.621094 23.382812 43.632812 23.371094 43.648438 C 22.328125 44.613281 21.730469 45.976562 21.730469 47.390625 L 21.730469 68.0625 C 21.730469 69.53125 22.933594 70.726562 24.40625 70.726562 L 42.9375 70.726562 C 44.410156 70.726562 45.609375 69.53125 45.609375 68.0625 L 45.609375 47.390625 C 45.609375 45.976562 45.015625 44.613281 43.972656 43.648438 " fill-opacity="1" fill-rule="nonzero"/></g><path fill="#000000" d="M 26.140625 49.78125 C 26.140625 49.640625 26.207031 49.507812 26.324219 49.410156 C 26.511719 49.257812 26.75 49.128906 27.027344 48.980469 C 27.683594 48.628906 28.503906 48.191406 29.160156 47.105469 C 30.054688 45.628906 31.574219 44.878906 33.671875 44.878906 C 35.769531 44.878906 37.285156 45.628906 38.179688 47.105469 C 38.839844 48.191406 39.65625 48.628906 40.316406 48.980469 C 40.589844 49.128906 40.832031 49.257812 41.019531 49.410156 C 41.136719 49.507812 41.203125 49.640625 41.203125 49.78125 L 41.203125 63.628906 C 41.203125 63.917969 40.925781 64.152344 40.585938 64.152344 L 26.757812 64.152344 C 26.417969 64.152344 26.140625 63.917969 26.140625 63.628906 Z M 26.757812 65.378906 L 40.585938 65.378906 C 41.605469 65.378906 42.433594 64.59375 42.433594 63.628906 L 42.433594 49.78125 C 42.433594 49.273438 42.207031 48.792969 41.804688 48.464844 C 41.519531 48.230469 41.203125 48.0625 40.898438 47.898438 C 40.292969 47.574219 39.71875 47.269531 39.238281 46.472656 C 38.101562 44.597656 36.230469 43.652344 33.671875 43.652344 C 31.113281 43.652344 29.238281 44.597656 28.105469 46.472656 C 27.621094 47.269531 27.050781 47.574219 26.445312 47.898438 C 26.136719 48.0625 25.820312 48.230469 25.539062 48.464844 C 25.136719 48.792969 24.90625 49.273438 24.90625 49.78125 L 24.90625 63.628906 C 24.90625 64.59375 25.738281 65.378906 26.757812 65.378906 " fill-opacity="1" fill-rule="nonzero"/><g clip-path="url(#6dc8a767ca)"><path fill="#000000" d="M 65.847656 60.941406 C 65.527344 61.191406 65.328125 61.566406 65.300781 61.96875 L 65.054688 65.597656 L 51.097656 65.597656 L 50.851562 61.96875 C 50.824219 61.566406 50.625 61.191406 50.308594 60.941406 L 49.464844 60.277344 L 66.6875 60.277344 Z M 64.632812 69.019531 L 51.519531 69.019531 C 51.414062 69.019531 51.320312 68.933594 51.3125 68.828125 L 51.179688 66.824219 L 64.972656 66.824219 L 64.835938 68.828125 C 64.832031 68.933594 64.742188 69.019531 64.632812 69.019531 Z M 47.742188 49.738281 C 47.765625 49.710938 47.816406 49.667969 47.894531 49.667969 L 68.257812 49.667969 C 68.335938 49.667969 68.386719 49.710938 68.410156 49.738281 C 68.433594 49.761719 68.472656 49.816406 68.460938 49.898438 L 67.398438 59.050781 L 48.753906 59.050781 L 47.691406 49.894531 C 47.683594 49.816406 47.71875 49.761719 47.742188 49.738281 Z M 69.332031 48.921875 C 69.058594 48.613281 68.667969 48.441406 68.257812 48.441406 L 47.894531 48.441406 C 47.484375 48.441406 47.09375 48.613281 46.820312 48.921875 C 46.546875 49.226562 46.417969 49.632812 46.464844 50.039062 L 47.585938 59.675781 C 47.585938 59.695312 47.59375 59.714844 47.597656 59.730469 C 47.601562 59.777344 47.613281 59.816406 47.625 59.859375 C 47.71875 60.269531 47.945312 60.648438 48.277344 60.910156 L 49.542969 61.902344 C 49.585938 61.941406 49.617188 61.992188 49.621094 62.050781 L 50.082031 68.910156 C 50.136719 69.660156 50.765625 70.246094 51.519531 70.246094 L 64.632812 70.246094 C 65.386719 70.246094 66.019531 69.660156 66.070312 68.910156 L 66.53125 62.050781 C 66.535156 61.992188 66.5625 61.941406 66.609375 61.902344 L 67.875 60.910156 C 68.207031 60.648438 68.429688 60.277344 68.523438 59.867188 C 68.539062 59.824219 68.550781 59.773438 68.554688 59.726562 C 68.558594 59.707031 68.5625 59.691406 68.566406 59.675781 L 69.6875 50.039062 C 69.734375 49.632812 69.601562 49.222656 69.332031 48.921875 " fill-opacity="1" fill-rule="nonzero"/></g><path fill="#000000" d="M 64.066406 61.632812 L 61.296875 64.390625 C 61.058594 64.628906 60.664062 64.628906 60.425781 64.390625 L 57.65625 61.632812 C 57.417969 61.394531 57.417969 61.003906 57.65625 60.765625 L 60.425781 58.007812 C 60.542969 57.886719 60.703125 57.828125 60.859375 57.828125 C 61.019531 57.828125 61.175781 57.886719 61.296875 58.007812 L 64.066406 60.765625 C 64.308594 61.003906 64.308594 61.394531 64.066406 61.632812 Z M 55.675781 64.390625 C 55.433594 64.628906 55.042969 64.628906 54.800781 64.390625 L 52.03125 61.632812 C 51.792969 61.394531 51.792969 61.003906 52.03125 60.765625 L 54.800781 58.007812 C 55.042969 57.769531 55.433594 57.769531 55.675781 58.007812 L 57.175781 59.503906 L 56.785156 59.894531 C 56.0625 60.613281 56.0625 61.785156 56.785156 62.5 L 57.175781 62.890625 Z M 64.9375 59.894531 L 62.171875 57.140625 C 61.449219 56.421875 60.273438 56.421875 59.554688 57.140625 L 58.046875 58.636719 L 56.546875 57.140625 C 55.824219 56.421875 54.652344 56.421875 53.929688 57.140625 L 51.160156 59.894531 C 50.4375 60.613281 50.4375 61.785156 51.160156 62.5 L 53.929688 65.257812 C 54.289062 65.617188 54.761719 65.796875 55.238281 65.796875 C 55.710938 65.796875 56.183594 65.617188 56.546875 65.257812 L 58.050781 63.761719 L 59.554688 65.257812 C 59.914062 65.617188 60.386719 65.796875 60.859375 65.796875 C 61.335938 65.796875 61.808594 65.617188 62.171875 65.257812 L 64.9375 62.5 C 65.660156 61.785156 65.660156 60.613281 64.9375 59.894531 " fill-opacity="1" fill-rule="nonzero"/></svg>