<svg xmlns="http://www.w3.org/2000/svg" xmlns:xlink="http://www.w3.org/1999/xlink" width="122" zoomAndPan="magnify" viewBox="0 0 91.5 91.499997" height="122" preserveAspectRatio="xMidYMid meet" version="1.0"><defs><clipPath id="06cc646647"><path d="M 5.289062 5.289062 L 86.210938 5.289062 L 86.210938 86.210938 L 5.289062 86.210938 Z M 5.289062 5.289062 " clip-rule="nonzero"/></clipPath><clipPath id="c4757adf0f"><path d="M 45.75 5.289062 C 23.402344 5.289062 5.289062 23.402344 5.289062 45.75 C 5.289062 68.097656 23.402344 86.210938 45.75 86.210938 C 68.097656 86.210938 86.210938 68.097656 86.210938 45.75 C 86.210938 23.402344 68.097656 5.289062 45.75 5.289062 " clip-rule="nonzero"/></clipPath><clipPath id="f03019352b"><path d="M 24.722656 18.40625 L 48 18.40625 L 48 73.15625 L 24.722656 73.15625 Z M 24.722656 18.40625 " clip-rule="nonzero"/></clipPath><clipPath id="988e135fbb"><path d="M 50 52 L 66.722656 52 L 66.722656 73 L 50 73 Z M 50 52 " clip-rule="nonzero"/></clipPath></defs><g clip-path="url(#06cc646647)"><g clip-path="url(#c4757adf0f)"><path fill="#ffffff" d="M 5.289062 5.289062 L 86.210938 5.289062 L 86.210938 86.210938 L 5.289062 86.210938 Z M 5.289062 5.289062 " fill-opacity="1" fill-rule="nonzero"/></g></g><g clip-path="url(#f03019352b)"><path fill="#000000" d="M 40.582031 32.078125 L 40.582031 31.175781 C 40.582031 30.933594 40.386719 30.742188 40.148438 30.742188 L 39.425781 30.742188 L 39.425781 24.6875 L 39.761719 24.6875 C 40.003906 24.6875 40.195312 24.496094 40.195312 24.253906 L 40.195312 23.527344 C 40.410156 23.5 40.582031 23.324219 40.582031 23.101562 L 40.582031 18.875 C 40.582031 18.632812 40.386719 18.4375 40.148438 18.4375 L 32.457031 18.4375 C 32.21875 18.4375 32.027344 18.632812 32.027344 18.875 L 32.027344 23.101562 C 32.027344 23.324219 32.195312 23.5 32.410156 23.527344 L 32.410156 24.253906 C 32.410156 24.496094 32.605469 24.6875 32.84375 24.6875 L 33.179688 24.6875 L 33.179688 30.742188 L 32.457031 30.742188 C 32.21875 30.742188 32.027344 30.933594 32.027344 31.175781 L 32.027344 32.078125 C 30.640625 32.902344 24.722656 36.570312 24.722656 39.246094 L 24.722656 68.074219 C 24.722656 68.121094 24.726562 69.210938 25.859375 70.355469 C 27.109375 71.621094 29.933594 73.128906 36.304688 73.128906 C 42.671875 73.128906 45.496094 71.621094 46.746094 70.355469 C 47.882812 69.210938 47.886719 68.121094 47.882812 68.078125 L 47.882812 39.246094 C 47.882812 36.570312 41.964844 32.902344 40.582031 32.078125 Z M 39.714844 22.667969 L 32.890625 22.667969 L 32.890625 21.230469 L 39.714844 21.230469 Z M 39.328125 23.820312 L 38.996094 23.820312 C 38.753906 23.820312 38.5625 24.015625 38.5625 24.253906 L 38.5625 26.230469 C 38.035156 26 37.234375 25.742188 36.304688 25.742188 C 35.371094 25.742188 34.570312 26 34.046875 26.230469 L 34.046875 24.253906 C 34.046875 24.015625 33.851562 23.820312 33.613281 23.820312 L 33.277344 23.820312 L 33.277344 23.535156 L 39.328125 23.535156 Z M 37.941406 26.917969 C 37.449219 27.101562 36.824219 27.28125 36.304688 27.28125 C 35.78125 27.28125 35.160156 27.101562 34.664062 26.917969 C 35.09375 26.757812 35.664062 26.609375 36.304688 26.609375 C 36.941406 26.609375 37.511719 26.761719 37.941406 26.917969 Z M 39.714844 19.308594 L 39.714844 20.363281 L 32.890625 20.363281 L 32.890625 19.308594 Z M 32.675781 32.703125 C 32.808594 32.625 32.890625 32.484375 32.890625 32.328125 L 32.890625 31.609375 L 33.613281 31.609375 C 33.851562 31.609375 34.046875 31.414062 34.046875 31.175781 L 34.046875 27.613281 C 34.632812 27.847656 35.53125 28.148438 36.304688 28.148438 C 37.074219 28.148438 37.972656 27.847656 38.5625 27.609375 L 38.5625 31.175781 C 38.5625 31.414062 38.753906 31.609375 38.996094 31.609375 L 39.714844 31.609375 L 39.714844 32.328125 C 39.714844 32.484375 39.796875 32.625 39.929688 32.703125 C 41.886719 33.835938 46.933594 37.191406 47.015625 39.199219 L 25.589844 39.199219 C 25.671875 37.191406 30.71875 33.835938 32.675781 32.703125 Z M 46.664062 69.066406 C 45.824219 68.519531 43.140625 67.261719 36.304688 67.261719 C 29.488281 67.261719 26.800781 68.511719 25.949219 69.0625 C 25.605469 68.503906 25.589844 68.09375 25.585938 68.078125 L 25.585938 45.832031 L 47.019531 45.832031 L 47.019531 68.082031 C 47.019531 68.089844 47.003906 68.503906 46.664062 69.066406 Z M 25.585938 44.964844 L 25.585938 40.066406 L 47.019531 40.066406 L 47.019531 44.964844 Z M 26.492188 69.742188 C 27.25 69.285156 29.808594 68.128906 36.304688 68.128906 C 42.832031 68.128906 45.378906 69.296875 46.125 69.75 C 44.988281 70.898438 42.363281 72.257812 36.304688 72.257812 C 30.289062 72.257812 27.652344 70.90625 26.492188 69.742188 Z M 26.492188 69.742188 " fill-opacity="1" fill-rule="nonzero"/></g><path fill="#000000" d="M 41.347656 70.003906 C 41.347656 68.460938 36.820312 68.414062 36.304688 68.414062 C 35.789062 68.414062 31.257812 68.460938 31.257812 70.003906 C 31.257812 71.542969 35.789062 71.589844 36.304688 71.589844 C 36.820312 71.589844 41.347656 71.542969 41.347656 70.003906 Z M 36.304688 69.28125 C 38.644531 69.28125 40.148438 69.71875 40.449219 70.003906 C 40.148438 70.285156 38.644531 70.722656 36.304688 70.722656 C 33.960938 70.722656 32.460938 70.285156 32.15625 70.003906 C 32.460938 69.71875 33.960938 69.28125 36.304688 69.28125 Z M 36.304688 69.28125 " fill-opacity="1" fill-rule="nonzero"/><path fill="#000000" d="M 36.304688 57.652344 C 33.945312 57.652344 32.027344 59.570312 32.027344 61.929688 C 32.027344 64.289062 33.945312 66.207031 36.304688 66.207031 C 38.660156 66.207031 40.582031 64.289062 40.582031 61.929688 C 40.582031 59.570312 38.660156 57.652344 36.304688 57.652344 Z M 36.304688 65.339844 C 34.421875 65.339844 32.890625 63.808594 32.890625 61.929688 C 32.890625 60.050781 34.421875 58.519531 36.304688 58.519531 C 38.183594 58.519531 39.714844 60.050781 39.714844 61.929688 C 39.714844 63.808594 38.183594 65.339844 36.304688 65.339844 Z M 36.304688 65.339844 " fill-opacity="1" fill-rule="nonzero"/><path fill="#000000" d="M 35.996094 58.902344 L 33.277344 61.621094 C 33.199219 61.703125 33.152344 61.8125 33.152344 61.929688 C 33.152344 62.042969 33.199219 62.15625 33.277344 62.238281 L 35.996094 64.953125 C 36.082031 65.039062 36.191406 65.082031 36.304688 65.082031 C 36.414062 65.082031 36.523438 65.039062 36.609375 64.953125 L 39.328125 62.238281 C 39.410156 62.15625 39.453125 62.042969 39.453125 61.929688 C 39.453125 61.8125 39.410156 61.703125 39.328125 61.621094 L 36.609375 58.902344 C 36.441406 58.734375 36.167969 58.734375 35.996094 58.902344 Z M 36.304688 64.035156 L 34.199219 61.929688 L 36.304688 59.824219 L 38.40625 61.929688 Z M 36.304688 64.035156 " fill-opacity="1" fill-rule="nonzero"/><path fill="#000000" d="M 57.613281 68.859375 C 55.855469 69.886719 53.414062 68.847656 53.390625 68.835938 C 53.175781 68.738281 52.917969 68.839844 52.820312 69.058594 C 52.726562 69.28125 52.828125 69.535156 53.046875 69.628906 C 53.121094 69.664062 54.328125 70.179688 55.753906 70.179688 C 56.503906 70.179688 57.3125 70.039062 58.050781 69.609375 C 58.257812 69.488281 58.328125 69.222656 58.207031 69.015625 C 58.085938 68.808594 57.820312 68.738281 57.613281 68.859375 Z M 57.613281 68.859375 " fill-opacity="1" fill-rule="nonzero"/><g clip-path="url(#988e135fbb)"><path fill="#000000" d="M 66.722656 54.625 C 66.722656 54.589844 66.710938 54.558594 66.707031 54.523438 C 66.707031 54.523438 66.707031 54.519531 66.707031 54.515625 C 66.554688 53.238281 63.832031 52.652344 61.292969 52.652344 C 58.75 52.652344 56.027344 53.238281 55.875 54.515625 C 55.875 54.519531 55.875 54.523438 55.875 54.527344 C 55.871094 54.558594 55.859375 54.589844 55.859375 54.625 C 55.859375 54.640625 55.867188 54.652344 55.867188 54.667969 C 55.867188 54.675781 55.863281 54.683594 55.867188 54.6875 L 56.308594 57.671875 C 56.046875 57.660156 55.785156 57.652344 55.527344 57.652344 C 52.984375 57.652344 50.261719 58.238281 50.109375 59.511719 C 50.109375 59.515625 50.109375 59.519531 50.109375 59.523438 C 50.105469 59.558594 50.09375 59.589844 50.09375 59.625 C 50.09375 59.636719 50.101562 59.652344 50.101562 59.667969 C 50.101562 59.675781 50.097656 59.679688 50.101562 59.6875 L 51.632812 70.035156 L 51.632812 71.542969 C 51.632812 71.71875 51.742188 71.878906 51.90625 71.945312 C 51.988281 71.976562 53.921875 72.746094 55.527344 72.746094 C 57.128906 72.746094 59.0625 71.976562 59.144531 71.945312 C 59.3125 71.878906 59.417969 71.71875 59.417969 71.542969 L 59.417969 70.035156 L 59.785156 67.570312 C 60.34375 67.6875 60.847656 67.746094 61.292969 67.746094 C 62.894531 67.746094 64.832031 66.980469 64.914062 66.945312 C 65.078125 66.878906 65.183594 66.71875 65.183594 66.542969 L 65.183594 65.039062 L 66.71875 54.6875 C 66.71875 54.683594 66.714844 54.675781 66.71875 54.667969 C 66.714844 54.652344 66.722656 54.640625 66.722656 54.625 Z M 61.292969 53.519531 C 64.226562 53.519531 65.820312 54.289062 65.851562 54.613281 L 65.847656 54.660156 C 65.742188 54.996094 64.15625 55.730469 61.292969 55.730469 C 58.425781 55.730469 56.839844 54.996094 56.738281 54.660156 L 56.730469 54.613281 C 56.761719 54.289062 58.355469 53.519531 61.292969 53.519531 Z M 56.914062 55.855469 C 57.96875 56.359375 59.667969 56.597656 61.292969 56.597656 C 62.914062 56.597656 64.613281 56.359375 65.667969 55.855469 L 65.316406 58.21875 C 64.128906 57.6875 61.871094 57.652344 61.292969 57.652344 C 60.207031 57.652344 59.167969 57.742188 58.335938 57.90625 C 57.972656 57.835938 57.585938 57.777344 57.191406 57.738281 Z M 59.550781 63.214844 C 58.359375 62.6875 56.105469 62.648438 55.523438 62.648438 C 54.945312 62.648438 52.6875 62.6875 51.496094 63.214844 L 51.148438 60.851562 C 52.203125 61.355469 53.902344 61.59375 55.523438 61.59375 C 57.148438 61.59375 58.847656 61.355469 59.902344 60.851562 Z M 59.304688 64.042969 C 58.835938 64.273438 57.46875 64.570312 55.523438 64.570312 C 53.578125 64.570312 52.214844 64.273438 51.746094 64.042969 C 52.199219 63.820312 53.5 63.515625 55.523438 63.515625 C 57.472656 63.515625 58.835938 63.816406 59.304688 64.042969 Z M 60.949219 59.566406 C 60.945312 59.550781 60.945312 59.535156 60.941406 59.523438 C 60.941406 59.519531 60.941406 59.515625 60.941406 59.511719 C 60.894531 59.132812 60.628906 58.816406 60.203125 58.554688 C 60.558594 58.535156 60.917969 58.519531 61.292969 58.519531 C 63.316406 58.519531 64.617188 58.824219 65.070312 59.046875 C 64.601562 59.273438 63.238281 59.574219 61.292969 59.574219 C 61.175781 59.574219 61.0625 59.566406 60.949219 59.566406 Z M 55.523438 58.519531 C 58.457031 58.519531 60.054688 59.285156 60.085938 59.613281 L 60.078125 59.65625 C 59.976562 59.996094 58.390625 60.726562 55.523438 60.726562 C 52.65625 60.726562 51.070312 59.996094 50.96875 59.65625 L 50.964844 59.613281 C 50.996094 59.285156 52.589844 58.519531 55.523438 58.519531 Z M 58.550781 70.003906 L 58.550781 71.238281 C 57.984375 71.441406 56.632812 71.875 55.523438 71.875 C 54.417969 71.875 53.066406 71.441406 52.496094 71.238281 L 52.496094 70.003906 C 52.496094 69.980469 52.496094 69.960938 52.492188 69.9375 L 51.757812 64.976562 C 52.992188 65.40625 54.984375 65.4375 55.523438 65.4375 C 56.066406 65.4375 58.058594 65.40625 59.292969 64.976562 L 58.554688 69.9375 C 58.554688 69.960938 58.550781 69.980469 58.550781 70.003906 Z M 64.324219 64.941406 C 64.320312 64.960938 64.316406 64.984375 64.316406 65.003906 L 64.316406 66.242188 C 63.75 66.441406 62.398438 66.878906 61.292969 66.878906 C 60.894531 66.878906 60.429688 66.820312 59.910156 66.710938 L 60.15625 65.039062 C 60.578125 65.125 61.042969 65.183594 61.527344 65.183594 C 62.285156 65.183594 63.085938 65.039062 63.816406 64.613281 C 64.023438 64.492188 64.09375 64.226562 63.972656 64.019531 C 63.851562 63.808594 63.585938 63.742188 63.378906 63.863281 C 62.363281 64.453125 61.117188 64.351562 60.285156 64.175781 L 60.839844 60.429688 C 60.992188 60.433594 61.136719 60.441406 61.292969 60.441406 C 61.832031 60.441406 63.824219 60.410156 65.058594 59.976562 Z M 64.324219 64.941406 " fill-opacity="1" fill-rule="nonzero"/></g></svg>