<svg xmlns="http://www.w3.org/2000/svg" xmlns:xlink="http://www.w3.org/1999/xlink" width="122" zoomAndPan="magnify" viewBox="0 0 91.5 91.499997" height="122" preserveAspectRatio="xMidYMid meet" version="1.0"><defs><clipPath id="9749dbf8f5"><path d="M 5.289062 5.289062 L 86.210938 5.289062 L 86.210938 86.210938 L 5.289062 86.210938 Z M 5.289062 5.289062 " clip-rule="nonzero"/></clipPath><clipPath id="d6dd486ec6"><path d="M 45.75 5.289062 C 23.402344 5.289062 5.289062 23.402344 5.289062 45.75 C 5.289062 68.097656 23.402344 86.210938 45.75 86.210938 C 68.097656 86.210938 86.210938 68.097656 86.210938 45.75 C 86.210938 23.402344 68.097656 5.289062 45.75 5.289062 " clip-rule="nonzero"/></clipPath><clipPath id="6dbb21e6ca"><path d="M 32 18 L 60 18 L 60 73.457031 L 32 73.457031 Z M 32 18 " clip-rule="nonzero"/></clipPath></defs><g clip-path="url(#9749dbf8f5)"><g clip-path="url(#d6dd486ec6)"><path fill="#ffffff" d="M 5.289062 5.289062 L 86.210938 5.289062 L 86.210938 86.210938 L 5.289062 86.210938 Z M 5.289062 5.289062 " fill-opacity="1" fill-rule="nonzero"/></g></g><g clip-path="url(#6dbb21e6ca)"><path fill="#000000" d="M 59.339844 41.003906 C 61.253906 32.480469 54.164062 19.144531 53.859375 18.582031 C 53.691406 18.269531 53.425781 18.109375 53.066406 18.109375 L 38.679688 18.109375 C 38.320312 18.109375 38.054688 18.269531 37.886719 18.582031 C 37.585938 19.144531 30.496094 32.480469 32.410156 41.003906 C 34.019531 48.1875 42.230469 49.449219 44.972656 49.667969 L 44.972656 67.964844 L 38.679688 67.964844 C 38.386719 67.964844 38.09375 67.996094 37.804688 68.050781 C 37.515625 68.109375 37.234375 68.195312 36.960938 68.304688 C 36.6875 68.417969 36.429688 68.554688 36.183594 68.71875 C 35.9375 68.878906 35.710938 69.066406 35.503906 69.269531 C 35.292969 69.476562 35.109375 69.703125 34.945312 69.945312 C 34.78125 70.1875 34.640625 70.445312 34.527344 70.714844 C 34.414062 70.984375 34.332031 71.261719 34.273438 71.550781 C 34.214844 71.835938 34.183594 72.125 34.183594 72.417969 C 34.183594 72.664062 34.273438 72.871094 34.449219 73.046875 C 34.625 73.21875 34.835938 73.308594 35.085938 73.308594 L 56.214844 73.308594 C 56.460938 73.308594 56.671875 73.21875 56.847656 73.046875 C 57.023438 72.871094 57.113281 72.664062 57.113281 72.417969 C 57.113281 72.125 57.082031 71.835938 57.023438 71.550781 C 56.96875 71.261719 56.882812 70.984375 56.769531 70.714844 C 56.65625 70.445312 56.515625 70.1875 56.351562 69.945312 C 56.1875 69.703125 56.003906 69.476562 55.792969 69.269531 C 55.585938 69.066406 55.359375 68.878906 55.113281 68.71875 C 54.867188 68.554688 54.609375 68.417969 54.335938 68.304688 C 54.0625 68.195312 53.78125 68.109375 53.492188 68.050781 C 53.203125 67.996094 52.910156 67.964844 52.617188 67.964844 L 46.773438 67.964844 L 46.773438 49.667969 C 49.519531 49.449219 57.726562 48.1875 59.339844 41.003906 Z M 55.160156 71.527344 L 36.136719 71.527344 C 36.328125 70.992188 36.660156 70.5625 37.125 70.238281 C 37.589844 69.910156 38.109375 69.746094 38.679688 69.746094 L 52.617188 69.746094 C 53.1875 69.746094 53.707031 69.910156 54.175781 70.238281 C 54.640625 70.5625 54.96875 70.992188 55.160156 71.527344 Z M 39.230469 19.890625 L 52.515625 19.890625 C 53.476562 21.785156 56.972656 29.035156 57.726562 35.46875 L 34.023438 35.46875 C 34.777344 29.035156 38.273438 21.785156 39.230469 19.890625 Z M 34.164062 40.617188 C 33.929688 39.507812 33.839844 38.386719 33.890625 37.25 L 57.859375 37.25 C 57.910156 38.386719 57.816406 39.507812 57.585938 40.617188 C 55.964844 47.832031 45.972656 47.933594 45.875 47.933594 C 45.773438 47.933594 35.78125 47.832031 34.164062 40.617188 Z M 52.625 26.238281 C 52.839844 26.117188 53.066406 26.089844 53.308594 26.15625 C 53.546875 26.21875 53.726562 26.359375 53.851562 26.574219 C 54.46875 27.9375 54.949219 29.347656 55.289062 30.804688 C 55.347656 31.042969 55.316406 31.265625 55.1875 31.476562 C 55.058594 31.6875 54.875 31.824219 54.632812 31.882812 C 54.394531 31.941406 54.167969 31.910156 53.953125 31.78125 C 53.742188 31.65625 53.605469 31.472656 53.542969 31.234375 C 53.242188 29.9375 52.820312 28.675781 52.285156 27.453125 C 52.164062 27.238281 52.136719 27.011719 52.199219 26.777344 C 52.265625 26.539062 52.40625 26.359375 52.625 26.238281 Z M 50.519531 23.5 C 50.382812 23.296875 50.339844 23.074219 50.386719 22.832031 C 50.4375 22.589844 50.566406 22.402344 50.769531 22.265625 C 50.976562 22.128906 51.203125 22.085938 51.445312 22.132812 C 51.6875 22.183594 51.878906 22.308594 52.015625 22.511719 C 52.027344 22.527344 52.257812 22.871094 52.59375 23.453125 C 52.726562 23.667969 52.757812 23.894531 52.695312 24.136719 C 52.632812 24.378906 52.488281 24.558594 52.273438 24.683594 C 52.054688 24.808594 51.824219 24.835938 51.582031 24.769531 C 51.339844 24.699219 51.15625 24.558594 51.035156 24.339844 C 50.730469 23.816406 50.523438 23.503906 50.519531 23.5 Z M 50.519531 23.5 " fill-opacity="1" fill-rule="nonzero"/></g></svg>