<svg xmlns="http://www.w3.org/2000/svg" xmlns:xlink="http://www.w3.org/1999/xlink" width="122" zoomAndPan="magnify" viewBox="0 0 91.5 91.499997" height="122" preserveAspectRatio="xMidYMid meet" version="1.0"><defs><clipPath id="c2903e2f9f"><path d="M 5.289062 5.289062 L 86.210938 5.289062 L 86.210938 86.210938 L 5.289062 86.210938 Z M 5.289062 5.289062 " clip-rule="nonzero"/></clipPath><clipPath id="6b09d05403"><path d="M 45.75 5.289062 C 23.402344 5.289062 5.289062 23.402344 5.289062 45.75 C 5.289062 68.097656 23.402344 86.210938 45.75 86.210938 C 68.097656 86.210938 86.210938 68.097656 86.210938 45.75 C 86.210938 23.402344 68.097656 5.289062 45.75 5.289062 " clip-rule="nonzero"/></clipPath><clipPath id="bf3f4ed191"><path d="M 20 20.308594 L 48 20.308594 L 48 71.308594 L 20 71.308594 Z M 20 20.308594 " clip-rule="nonzero"/></clipPath><clipPath id="88c6e9102d"><path d="M 48 36 L 71 36 L 71 71.308594 L 48 71.308594 Z M 48 36 " clip-rule="nonzero"/></clipPath></defs><g clip-path="url(#c2903e2f9f)"><g clip-path="url(#6b09d05403)"><path fill="#ffffff" d="M 5.289062 5.289062 L 86.210938 5.289062 L 86.210938 86.210938 L 5.289062 86.210938 Z M 5.289062 5.289062 " fill-opacity="1" fill-rule="nonzero"/></g></g><g clip-path="url(#bf3f4ed191)"><path fill="#000000" d="M 45.757812 45.914062 C 45.066406 45.097656 44.71875 44.691406 42.875 43.894531 C 38.867188 42.167969 37.328125 37.433594 37.164062 36.894531 L 37.164062 29.269531 L 37.507812 29.269531 C 37.726562 29.269531 37.90625 29.089844 37.90625 28.867188 L 37.90625 20.78125 C 37.90625 20.558594 37.726562 20.375 37.507812 20.375 L 30.808594 20.375 C 30.585938 20.375 30.40625 20.558594 30.40625 20.78125 L 30.40625 28.867188 C 30.40625 29.089844 30.585938 29.269531 30.808594 29.269531 L 31.152344 29.269531 L 31.152344 36.894531 C 30.988281 37.433594 29.457031 42.164062 25.4375 43.894531 C 23.597656 44.691406 23.25 45.097656 22.554688 45.914062 L 22.308594 46.203125 C 19.675781 49.238281 20.304688 53.867188 21.105469 59.722656 C 21.796875 64.796875 23.089844 69.933594 23.34375 70.921875 C 23.386719 71.105469 23.546875 71.238281 23.734375 71.238281 L 44.578125 71.238281 C 44.761719 71.238281 44.925781 71.089844 44.972656 70.914062 C 45.226562 69.933594 46.515625 64.796875 47.210938 59.722656 C 48.007812 53.867188 48.636719 49.238281 46.003906 46.203125 Z M 31.953125 36.546875 L 31.953125 35.816406 L 36.363281 35.816406 L 36.363281 36.546875 Z M 31.207031 28.460938 L 31.207031 27.640625 L 37.105469 27.640625 L 37.105469 28.460938 Z M 37.105469 26.835938 L 31.207031 26.835938 L 31.207031 23.9375 L 34.105469 24.335938 C 34.121094 24.335938 34.140625 24.339844 34.15625 24.339844 C 34.175781 24.339844 34.195312 24.335938 34.210938 24.335938 L 37.105469 23.9375 Z M 37.105469 23.125 L 34.15625 23.527344 L 31.207031 23.125 L 31.207031 22.398438 L 34.105469 22.792969 C 34.121094 22.796875 34.140625 22.796875 34.15625 22.796875 C 34.175781 22.796875 34.195312 22.796875 34.210938 22.796875 L 37.105469 22.398438 Z M 37.105469 21.183594 L 37.105469 21.582031 L 34.15625 21.988281 L 31.207031 21.582031 L 31.207031 21.183594 Z M 36.363281 29.269531 L 36.363281 35.007812 L 31.953125 35.007812 L 31.953125 29.269531 Z M 46.417969 59.613281 C 45.785156 64.242188 44.648438 68.929688 44.269531 70.429688 L 24.046875 70.429688 C 23.679688 68.988281 22.53125 64.269531 21.898438 59.613281 C 21.042969 53.339844 20.632812 49.359375 22.910156 46.734375 L 23.164062 46.441406 C 23.8125 45.675781 24.082031 45.359375 25.753906 44.636719 C 29.789062 42.898438 31.457031 38.539062 31.847656 37.355469 L 36.46875 37.355469 C 36.855469 38.539062 38.527344 42.898438 42.5625 44.636719 C 44.234375 45.359375 44.503906 45.675781 45.152344 46.441406 L 45.402344 46.734375 C 47.679688 49.359375 47.273438 53.339844 46.417969 59.613281 Z M 46.417969 59.613281 " fill-opacity="1" fill-rule="nonzero"/></g><path fill="#000000" d="M 40.113281 50.792969 L 28.203125 50.792969 C 27.980469 50.792969 27.800781 50.976562 27.800781 51.199219 L 27.800781 60.4375 C 27.800781 60.660156 27.980469 60.839844 28.203125 60.839844 L 40.113281 60.839844 C 40.332031 60.839844 40.511719 60.660156 40.511719 60.4375 L 40.511719 51.199219 C 40.511719 50.976562 40.332031 50.792969 40.113281 50.792969 Z M 39.710938 60.035156 L 28.601562 60.035156 L 28.601562 51.601562 L 39.710938 51.601562 Z M 39.710938 60.035156 " fill-opacity="1" fill-rule="nonzero"/><path fill="#000000" d="M 34.15625 34.660156 C 35.199219 34.660156 36.046875 33.789062 36.046875 32.714844 C 36.046875 31.644531 35.199219 30.773438 34.15625 30.773438 C 33.117188 30.773438 32.269531 31.644531 32.269531 32.714844 C 32.269531 33.789062 33.117188 34.660156 34.15625 34.660156 Z M 34.15625 31.578125 C 34.757812 31.578125 35.246094 32.089844 35.246094 32.714844 C 35.246094 33.34375 34.757812 33.851562 34.15625 33.851562 C 33.558594 33.851562 33.066406 33.34375 33.066406 32.714844 C 33.066406 32.089844 33.558594 31.578125 34.15625 31.578125 Z M 34.15625 31.578125 " fill-opacity="1" fill-rule="nonzero"/><g clip-path="url(#88c6e9102d)"><path fill="#000000" d="M 70.59375 52.9375 L 67.308594 38.96875 C 67.191406 37.441406 63.261719 36.742188 59.601562 36.742188 C 55.945312 36.742188 52.015625 37.441406 51.894531 38.96875 L 48.617188 52.90625 C 48.582031 53.015625 47.78125 55.59375 49.453125 57.914062 C 50.886719 59.910156 53.65625 61.050781 57.691406 61.316406 L 57.308594 64.492188 C 53.835938 64.910156 51.523438 66.214844 51.523438 67.78125 C 51.523438 69.734375 55.003906 71.210938 59.617188 71.210938 C 64.230469 71.210938 67.710938 69.738281 67.710938 67.78125 C 67.710938 67.359375 67.542969 66.957031 67.230469 66.585938 C 67.210938 66.5625 67.199219 66.535156 67.175781 66.515625 C 67.167969 66.507812 67.160156 66.507812 67.152344 66.5 C 66.265625 65.523438 64.371094 64.777344 61.875 64.484375 C 61.765625 63.546875 61.636719 62.4375 61.511719 61.316406 C 65.546875 61.050781 68.316406 59.910156 69.75 57.914062 C 71.421875 55.59375 70.621094 53.015625 70.59375 52.9375 Z M 59.601562 51.871094 C 55.597656 51.871094 51.089844 52.371094 49.519531 52.558594 L 52.476562 39.992188 C 53.71875 40.90625 56.742188 41.332031 59.601562 41.332031 C 62.460938 41.332031 65.484375 40.90625 66.726562 39.992188 L 69.683594 52.558594 C 68.117188 52.371094 63.605469 51.871094 59.601562 51.871094 Z M 69.324219 53.328125 C 68.277344 54.15625 65.558594 55.652344 59.601562 55.652344 C 53.695312 55.652344 50.953125 54.152344 49.890625 53.328125 C 51.644531 53.121094 55.851562 52.679688 59.601562 52.679688 C 63.359375 52.679688 67.574219 53.125 69.324219 53.328125 Z M 59.601562 37.550781 C 64.074219 37.550781 66.515625 38.53125 66.515625 39.039062 C 66.515625 39.542969 64.074219 40.523438 59.601562 40.523438 C 55.128906 40.523438 52.6875 39.542969 52.6875 39.039062 C 52.6875 38.53125 55.128906 37.550781 59.601562 37.550781 Z M 59.617188 70.402344 C 55.320312 70.402344 52.324219 69.019531 52.324219 67.78125 C 52.324219 67.695312 52.34375 67.605469 52.375 67.515625 C 53.6875 68.621094 56.425781 69.320312 59.617188 69.320312 C 62.699219 69.320312 65.488281 68.582031 66.835938 67.449219 C 66.882812 67.5625 66.910156 67.671875 66.910156 67.78125 C 66.910156 69.019531 63.914062 70.402344 59.617188 70.402344 Z M 66.339844 66.820312 C 65.171875 67.828125 62.507812 68.511719 59.617188 68.511719 C 56.644531 68.511719 53.960938 67.84375 52.847656 66.863281 C 53.578125 66.210938 55.058594 65.597656 57.210938 65.316406 L 57.011719 66.992188 C 56.992188 67.136719 57.050781 67.277344 57.167969 67.363281 C 57.570312 67.671875 58.421875 68.183594 59.589844 68.183594 C 59.59375 68.183594 59.597656 68.183594 59.601562 68.183594 C 60.839844 68.179688 61.714844 67.609375 62.035156 67.363281 C 62.171875 67.257812 62.226562 67.082031 62.175781 66.921875 C 62.152344 66.78125 62.078125 66.175781 61.972656 65.308594 C 64.109375 65.582031 65.589844 66.179688 66.339844 66.820312 Z M 61.199219 65.554688 C 61.257812 66.066406 61.304688 66.453125 61.339844 66.710938 C 61.347656 66.757812 61.351562 66.808594 61.359375 66.855469 C 61.019531 67.074219 60.40625 67.375 59.601562 67.375 C 58.828125 67.371094 58.203125 67.085938 57.832031 66.847656 L 58.492188 61.355469 C 58.851562 61.367188 59.222656 61.375 59.601562 61.375 C 59.980469 61.375 60.347656 61.367188 60.710938 61.355469 C 60.921875 63.195312 61.082031 64.601562 61.199219 65.554688 Z M 69.097656 57.449219 C 67.601562 59.519531 64.40625 60.570312 59.601562 60.570312 C 54.796875 60.570312 51.601562 59.519531 50.105469 57.449219 C 49.15625 56.136719 49.144531 54.691406 49.246094 53.847656 C 50.347656 54.773438 53.226562 56.460938 59.601562 56.460938 C 65.980469 56.460938 68.859375 54.773438 69.957031 53.847656 C 70.0625 54.679688 70.050781 56.128906 69.097656 57.449219 Z M 69.097656 57.449219 " fill-opacity="1" fill-rule="nonzero"/></g><path fill="#000000" d="M 59.601562 57.542969 C 58.238281 57.542969 56.644531 57.847656 56.644531 58.703125 C 56.644531 59.558594 58.238281 59.863281 59.601562 59.863281 C 60.96875 59.863281 62.5625 59.5625 62.5625 58.703125 C 62.5625 57.847656 60.96875 57.542969 59.601562 57.542969 Z M 59.601562 59.058594 C 58.511719 59.058594 57.792969 58.855469 57.527344 58.703125 C 57.792969 58.554688 58.515625 58.351562 59.601562 58.351562 C 60.691406 58.351562 61.410156 58.554688 61.679688 58.703125 C 61.410156 58.855469 60.691406 59.058594 59.601562 59.058594 Z M 59.601562 59.058594 " fill-opacity="1" fill-rule="nonzero"/><path fill="#000000" d="M 34.15625 46.171875 C 33.890625 46.171875 27.5625 46.210938 25.980469 49.480469 C 24.675781 52.179688 24.214844 64.335938 24.105469 67.996094 C 24.097656 68.21875 24.269531 68.40625 24.492188 68.410156 C 24.699219 68.425781 24.898438 68.242188 24.902344 68.019531 C 25.128906 60.558594 25.71875 51.863281 26.699219 49.835938 C 28.0625 47.019531 34.097656 46.980469 34.15625 46.980469 C 34.21875 46.980469 40.253906 47.019531 41.613281 49.835938 C 42.59375 51.863281 43.1875 60.558594 43.410156 68.019531 C 43.417969 68.238281 43.59375 68.414062 43.808594 68.414062 C 43.816406 68.414062 43.820312 68.414062 43.824219 68.414062 C 44.042969 68.40625 44.21875 68.21875 44.210938 67.996094 C 44.101562 64.335938 43.636719 52.179688 42.332031 49.480469 C 40.753906 46.210938 34.425781 46.171875 34.15625 46.171875 Z M 34.15625 46.171875 " fill-opacity="1" fill-rule="nonzero"/></svg>