<svg xmlns="http://www.w3.org/2000/svg" xmlns:xlink="http://www.w3.org/1999/xlink" width="122" zoomAndPan="magnify" viewBox="0 0 91.5 91.499997" height="122" preserveAspectRatio="xMidYMid meet" version="1.0"><defs><clipPath id="6bfe3cf2da"><path d="M 5.289062 5.289062 L 86.210938 5.289062 L 86.210938 86.210938 L 5.289062 86.210938 Z M 5.289062 5.289062 " clip-rule="nonzero"/></clipPath><clipPath id="d4717cdba4"><path d="M 45.75 5.289062 C 23.402344 5.289062 5.289062 23.402344 5.289062 45.75 C 5.289062 68.097656 23.402344 86.210938 45.75 86.210938 C 68.097656 86.210938 86.210938 68.097656 86.210938 45.75 C 86.210938 23.402344 68.097656 5.289062 45.75 5.289062 " clip-rule="nonzero"/></clipPath><clipPath id="ad2eaa674e"><path d="M 29.054688 21.105469 L 62.800781 21.105469 L 62.800781 70.605469 L 29.054688 70.605469 Z M 29.054688 21.105469 " clip-rule="nonzero"/></clipPath></defs><g clip-path="url(#6bfe3cf2da)"><g clip-path="url(#d4717cdba4)"><path fill="#ffffff" d="M 5.289062 5.289062 L 86.210938 5.289062 L 86.210938 86.210938 L 5.289062 86.210938 Z M 5.289062 5.289062 " fill-opacity="1" fill-rule="nonzero"/></g></g><g clip-path="url(#ad2eaa674e)"><path fill="#000000" d="M 61.085938 39.957031 C 57.304688 38.832031 54.765625 35.441406 54.765625 31.523438 L 54.765625 30.6875 C 55.652344 30.6875 56.375 29.96875 56.375 29.089844 L 56.375 27.492188 C 56.375 26.964844 56.113281 26.5 55.71875 26.207031 L 56.308594 23.867188 C 56.351562 23.691406 56.375 23.507812 56.375 23.328125 C 56.375 22.101562 55.371094 21.105469 54.140625 21.105469 L 47.359375 21.105469 C 46.125 21.105469 45.125 22.101562 45.125 23.328125 C 45.125 23.507812 45.148438 23.691406 45.191406 23.863281 L 45.78125 26.207031 C 45.382812 26.5 45.125 26.964844 45.125 27.492188 L 45.125 29.089844 C 45.125 29.96875 45.84375 30.6875 46.730469 30.6875 L 46.730469 31.523438 C 46.730469 35.441406 44.191406 38.832031 40.414062 39.957031 C 39.386719 40.265625 38.695312 41.1875 38.695312 42.253906 L 38.695312 54.65625 L 32.058594 51.632812 C 31.78125 51.507812 31.484375 51.441406 31.175781 51.441406 C 30.003906 51.441406 29.054688 52.390625 29.054688 53.550781 L 29.054688 59.886719 C 29.054688 65.796875 33.890625 70.601562 39.839844 70.601562 L 58.785156 70.601562 C 61 70.601562 62.804688 68.8125 62.804688 66.609375 L 62.804688 42.253906 C 62.804688 41.1875 62.113281 40.265625 61.085938 39.957031 Z M 54.765625 29.089844 L 46.730469 29.089844 L 46.730469 27.492188 L 54.765625 27.492188 L 54.769531 29.089844 C 54.769531 29.089844 54.769531 29.089844 54.765625 29.089844 Z M 47.359375 22.703125 L 54.140625 22.703125 C 54.484375 22.703125 54.765625 22.984375 54.765625 23.328125 C 54.765625 23.378906 54.761719 23.429688 54.75 23.476562 L 54.140625 25.898438 L 47.359375 25.898438 L 46.75 23.476562 C 46.738281 23.429688 46.730469 23.378906 46.730469 23.328125 C 46.730469 22.984375 47.011719 22.703125 47.359375 22.703125 Z M 53.160156 30.6875 L 53.160156 31.523438 C 53.160156 31.777344 53.171875 32.03125 53.1875 32.28125 L 48.308594 32.28125 C 48.328125 32.03125 48.339844 31.777344 48.339844 31.523438 L 48.339844 30.6875 Z M 40.875 41.488281 C 43.050781 40.839844 44.914062 39.542969 46.269531 37.734375 C 47.140625 36.570312 47.746094 35.261719 48.066406 33.878906 L 53.429688 33.878906 C 53.753906 35.261719 54.359375 36.570312 55.230469 37.734375 C 56.585938 39.542969 58.449219 40.839844 60.621094 41.488281 C 60.828125 41.550781 60.992188 41.6875 61.09375 41.863281 L 40.40625 41.863281 C 40.503906 41.6875 40.667969 41.550781 40.875 41.488281 Z M 40.304688 43.460938 L 61.195312 43.460938 L 61.195312 62.621094 L 57.054688 62.621094 L 56.953125 62.019531 C 56.617188 60.003906 55.488281 58.210938 53.859375 57.015625 C 56.125 55.449219 58.050781 53.410156 59.472656 51.054688 L 60.371094 49.574219 L 57.195312 50.097656 C 56.640625 50.191406 56.097656 50.324219 55.570312 50.492188 L 55.570312 45.523438 L 52.070312 49.003906 C 51.925781 48.480469 51.765625 47.960938 51.59375 47.445312 L 50.75 44.925781 L 49.90625 47.445312 C 49.730469 47.960938 49.574219 48.480469 49.429688 49.003906 L 45.929688 45.523438 L 45.929688 50.492188 C 45.398438 50.324219 44.855469 50.191406 44.304688 50.097656 L 41.128906 49.574219 L 42.023438 51.054688 C 43.410156 53.351562 45.277344 55.347656 47.472656 56.898438 C 46.933594 57.195312 46.429688 57.558594 45.972656 57.96875 L 40.304688 55.386719 Z M 50.167969 59.878906 L 47.597656 58.710938 C 48.109375 58.339844 48.675781 58.039062 49.277344 57.828125 L 52.160156 57.828125 C 53.859375 58.734375 55.050781 60.386719 55.367188 62.28125 L 55.425781 62.621094 L 51.476562 62.621094 C 51.523438 62.425781 51.554688 62.226562 51.554688 62.023438 C 51.554688 61.105469 51.007812 60.261719 50.167969 59.878906 Z M 33.875 59.640625 L 33.875 54.21875 L 38.894531 56.503906 L 34.09375 61.269531 C 33.953125 60.75 33.875 60.207031 33.875 59.640625 Z M 40.421875 57.242188 L 40.992188 65.746094 C 40.695312 65.789062 40.394531 65.8125 40.085938 65.8125 C 37.84375 65.8125 35.871094 64.625 34.78125 62.847656 Z M 42.574219 65.300781 L 42.082031 57.953125 L 47.386719 60.371094 L 44.988281 63.429688 C 44.339844 64.257812 43.507812 64.894531 42.574219 65.300781 Z M 52.96875 53.652344 C 54.167969 52.707031 55.574219 52.054688 57.074219 51.746094 C 55.964844 53.214844 54.628906 54.511719 53.125 55.578125 C 53.09375 54.933594 53.039062 54.292969 52.96875 53.652344 Z M 53.964844 51.144531 C 53.53125 51.355469 53.113281 51.597656 52.710938 51.867188 C 52.652344 51.515625 52.585938 51.167969 52.511719 50.820312 L 53.964844 49.378906 Z M 51.542969 56.234375 L 49.957031 56.234375 C 50.011719 54.230469 50.277344 52.246094 50.75 50.304688 C 51.21875 52.246094 51.484375 54.230469 51.542969 56.234375 Z M 48.785156 51.867188 C 48.382812 51.597656 47.964844 51.355469 47.535156 51.144531 L 47.535156 49.378906 L 48.984375 50.820312 C 48.914062 51.167969 48.847656 51.515625 48.785156 51.867188 Z M 48.53125 53.652344 C 48.457031 54.292969 48.40625 54.933594 48.375 55.578125 C 46.871094 54.511719 45.535156 53.214844 44.425781 51.746094 C 45.925781 52.054688 47.328125 52.707031 48.53125 53.652344 Z M 30.660156 59.886719 L 30.660156 53.550781 C 30.660156 53.269531 30.890625 53.039062 31.175781 53.039062 C 31.25 53.039062 31.324219 53.054688 31.390625 53.085938 L 32.265625 53.484375 L 32.265625 59.640625 C 32.265625 63.925781 35.773438 67.410156 40.085938 67.410156 C 42.515625 67.410156 44.765625 66.316406 46.257812 64.410156 L 48.886719 61.050781 L 49.496094 61.332031 C 49.769531 61.453125 49.945312 61.726562 49.945312 62.023438 C 49.945312 62.210938 49.875 62.394531 49.75 62.53125 L 46.699219 65.945312 C 44.957031 67.890625 42.457031 69.007812 39.839844 69.007812 C 34.777344 69.007812 30.660156 64.914062 30.660156 59.886719 Z M 58.785156 69.007812 L 45.5 69.007812 C 46.386719 68.464844 47.195312 67.792969 47.898438 67.007812 L 50.394531 64.214844 L 61.195312 64.214844 L 61.195312 66.609375 C 61.195312 67.929688 60.113281 69.007812 58.785156 69.007812 Z M 58.785156 69.007812 " fill-opacity="1" fill-rule="nonzero"/></g><path fill="#000000" d="M 37.089844 57.03125 C 37.089844 57.25 37.011719 57.441406 36.851562 57.59375 C 36.695312 57.75 36.507812 57.828125 36.285156 57.828125 C 36.0625 57.828125 35.875 57.75 35.714844 57.59375 C 35.558594 57.441406 35.480469 57.25 35.480469 57.03125 C 35.480469 56.8125 35.558594 56.621094 35.714844 56.464844 C 35.875 56.3125 36.0625 56.234375 36.285156 56.234375 C 36.507812 56.234375 36.695312 56.3125 36.851562 56.464844 C 37.011719 56.621094 37.089844 56.8125 37.089844 57.03125 Z M 37.089844 57.03125 " fill-opacity="1" fill-rule="nonzero"/><path fill="#000000" d="M 39.5 63.417969 C 39.5 63.636719 39.421875 63.828125 39.265625 63.980469 C 39.105469 64.136719 38.917969 64.214844 38.695312 64.214844 C 38.472656 64.214844 38.285156 64.136719 38.128906 63.980469 C 37.96875 63.828125 37.890625 63.636719 37.890625 63.417969 C 37.890625 63.195312 37.96875 63.007812 38.128906 62.851562 C 38.285156 62.699219 38.472656 62.621094 38.695312 62.621094 C 38.917969 62.621094 39.105469 62.699219 39.265625 62.851562 C 39.421875 63.007812 39.5 63.195312 39.5 63.417969 Z M 39.5 63.417969 " fill-opacity="1" fill-rule="nonzero"/><path fill="#000000" d="M 45.125 61.023438 C 45.125 61.242188 45.046875 61.429688 44.890625 61.585938 C 44.730469 61.742188 44.542969 61.820312 44.320312 61.820312 C 44.097656 61.820312 43.910156 61.742188 43.753906 61.585938 C 43.59375 61.429688 43.515625 61.242188 43.515625 61.023438 C 43.515625 60.800781 43.59375 60.613281 43.753906 60.457031 C 43.910156 60.300781 44.097656 60.222656 44.320312 60.222656 C 44.542969 60.222656 44.730469 60.300781 44.890625 60.457031 C 45.046875 60.613281 45.125 60.800781 45.125 61.023438 Z M 45.125 61.023438 " fill-opacity="1" fill-rule="nonzero"/></svg>