<svg xmlns="http://www.w3.org/2000/svg" xmlns:xlink="http://www.w3.org/1999/xlink" width="122" zoomAndPan="magnify" viewBox="0 0 91.5 91.499997" height="122" preserveAspectRatio="xMidYMid meet" version="1.0"><defs><clipPath id="f39c671480"><path d="M 5.289062 5.289062 L 86.210938 5.289062 L 86.210938 86.210938 L 5.289062 86.210938 Z M 5.289062 5.289062 " clip-rule="nonzero"/></clipPath><clipPath id="16f55673b4"><path d="M 45.75 5.289062 C 23.402344 5.289062 5.289062 23.402344 5.289062 45.75 C 5.289062 68.097656 23.402344 86.210938 45.75 86.210938 C 68.097656 86.210938 86.210938 68.097656 86.210938 45.75 C 86.210938 23.402344 68.097656 5.289062 45.75 5.289062 " clip-rule="nonzero"/></clipPath><clipPath id="124d221951"><path d="M 26.339844 19.433594 L 65.339844 19.433594 L 65.339844 71.933594 L 26.339844 71.933594 Z M 26.339844 19.433594 " clip-rule="nonzero"/></clipPath></defs><g clip-path="url(#f39c671480)"><g clip-path="url(#16f55673b4)"><path fill="#ffffff" d="M 5.289062 5.289062 L 86.210938 5.289062 L 86.210938 86.210938 L 5.289062 86.210938 Z M 5.289062 5.289062 " fill-opacity="1" fill-rule="nonzero"/></g></g><g clip-path="url(#124d221951)"><path fill="#000000" d="M 51.820312 32.257812 L 48.9375 37.042969 L 32.613281 37.042969 L 28.449219 32.257812 Z M 63.230469 32.257812 L 59.066406 37.042969 L 50.449219 37.042969 L 53.332031 32.257812 Z M 65.136719 32.03125 C 65.304688 31.839844 65.339844 31.574219 65.234375 31.34375 C 65.128906 31.117188 64.902344 30.972656 64.648438 30.972656 L 54.105469 30.972656 L 56.265625 27.390625 C 56.671875 27.519531 57.109375 27.566406 57.558594 27.515625 C 59.265625 27.328125 60.492188 25.800781 60.304688 24.105469 C 60.21875 23.363281 59.878906 22.714844 59.375 22.234375 L 60.417969 20.503906 C 60.601562 20.199219 60.503906 19.804688 60.195312 19.621094 C 59.890625 19.4375 59.492188 19.539062 59.308594 19.84375 L 58.277344 21.550781 C 57.839844 21.390625 57.363281 21.328125 56.867188 21.382812 C 55.160156 21.570312 53.933594 23.097656 54.125 24.792969 C 54.210938 25.578125 54.589844 26.261719 55.140625 26.75 L 52.597656 30.972656 L 27.03125 30.972656 C 26.777344 30.972656 26.546875 31.117188 26.441406 31.34375 C 26.335938 31.574219 26.375 31.839844 26.542969 32.03125 L 45.113281 53.53125 L 45.113281 68.40625 C 42.621094 68.761719 37.96875 70.585938 37.753906 70.671875 C 37.464844 70.785156 37.296875 71.085938 37.355469 71.390625 C 37.414062 71.695312 37.679688 71.914062 37.992188 71.914062 L 53.6875 71.914062 C 53.996094 71.914062 54.265625 71.695312 54.320312 71.390625 C 54.378906 71.089844 54.214844 70.785156 53.925781 70.671875 C 53.703125 70.582031 48.855469 68.683594 46.410156 68.382812 L 46.410156 53.476562 L 65.136719 32.03125 " fill-opacity="1" fill-rule="nonzero"/></g></svg>