<svg xmlns="http://www.w3.org/2000/svg" xmlns:xlink="http://www.w3.org/1999/xlink" width="122" zoomAndPan="magnify" viewBox="0 0 91.5 91.499997" height="122" preserveAspectRatio="xMidYMid meet" version="1.0"><defs><clipPath id="453618fe9b"><path d="M 5.289062 5.289062 L 86.210938 5.289062 L 86.210938 86.210938 L 5.289062 86.210938 Z M 5.289062 5.289062 " clip-rule="nonzero"/></clipPath><clipPath id="f84f1c9a44"><path d="M 45.75 5.289062 C 23.402344 5.289062 5.289062 23.402344 5.289062 45.75 C 5.289062 68.097656 23.402344 86.210938 45.75 86.210938 C 68.097656 86.210938 86.210938 68.097656 86.210938 45.75 C 86.210938 23.402344 68.097656 5.289062 45.75 5.289062 " clip-rule="nonzero"/></clipPath><clipPath id="5e60f5ba05"><path d="M 22.042969 21.246094 L 49 21.246094 L 49 69.996094 L 22.042969 69.996094 Z M 22.042969 21.246094 " clip-rule="nonzero"/></clipPath><clipPath id="8192f4656f"><path d="M 51 52 L 69.292969 52 L 69.292969 69.996094 L 51 69.996094 Z M 51 52 " clip-rule="nonzero"/></clipPath></defs><g clip-path="url(#453618fe9b)"><g clip-path="url(#f84f1c9a44)"><path fill="#ffffff" d="M 5.289062 5.289062 L 86.210938 5.289062 L 86.210938 86.210938 L 5.289062 86.210938 Z M 5.289062 5.289062 " fill-opacity="1" fill-rule="nonzero"/></g></g><g clip-path="url(#5e60f5ba05)"><path fill="#000000" d="M 44.9375 62.683594 L 26.945312 62.683594 L 26.945312 64.308594 L 45.332031 64.308594 L 46.480469 65.457031 L 46.480469 68.371094 L 23.691406 68.371094 L 23.691406 65.457031 L 25.078125 64.070312 C 25.253906 63.894531 25.339844 63.652344 25.3125 63.40625 L 24.183594 53.019531 C 23.855469 50.234375 23.691406 47.402344 23.691406 44.597656 C 23.691406 42.15625 25.246094 40 27.566406 39.230469 L 30.460938 38.265625 C 30.792969 38.15625 31.015625 37.84375 31.015625 37.496094 L 31.015625 35.035156 C 31.015625 34.039062 31.136719 33.042969 31.378906 32.078125 L 32.464844 27.746094 L 37.707031 27.746094 L 38.113281 29.371094 L 33.457031 29.371094 L 33.457031 30.996094 L 38.519531 30.996094 L 38.789062 32.078125 C 39.03125 33.042969 39.15625 34.039062 39.15625 35.035156 L 39.15625 36.683594 L 32.644531 36.683594 L 32.644531 38.308594 L 39.835938 38.308594 L 42.605469 39.230469 C 44.925781 40 46.480469 42.15625 46.480469 44.597656 C 46.480469 47.402344 46.316406 50.234375 45.984375 53.027344 Z M 31.828125 22.871094 L 38.339844 22.871094 L 38.34375 26.121094 C 38.34375 26.121094 38.34375 26.121094 38.339844 26.121094 L 31.828125 26.121094 Z M 48.109375 44.597656 C 48.109375 41.457031 46.105469 38.679688 43.121094 37.6875 L 40.785156 36.910156 L 40.785156 35.035156 C 40.785156 33.90625 40.644531 32.777344 40.371094 31.683594 L 39.304688 27.429688 C 39.707031 27.132812 39.96875 26.65625 39.96875 26.121094 L 39.96875 22.871094 C 39.96875 21.976562 39.238281 21.246094 38.339844 21.246094 L 31.828125 21.246094 C 30.933594 21.246094 30.203125 21.976562 30.203125 22.871094 L 30.203125 26.121094 C 30.203125 26.65625 30.464844 27.132812 30.867188 27.429688 L 29.800781 31.683594 C 29.527344 32.777344 29.386719 33.90625 29.386719 35.035156 L 29.386719 36.910156 L 27.050781 37.6875 C 24.066406 38.679688 22.0625 41.457031 22.0625 44.597656 C 22.0625 47.464844 22.230469 50.363281 22.566406 53.203125 L 23.652344 63.195312 L 22.300781 64.546875 C 22.148438 64.699219 22.0625 64.90625 22.0625 65.121094 L 22.0625 68.371094 C 22.0625 69.265625 22.792969 69.996094 23.691406 69.996094 L 46.480469 69.996094 C 47.378906 69.996094 48.109375 69.265625 48.109375 68.371094 L 48.109375 65.121094 C 48.109375 64.90625 48.023438 64.699219 47.871094 64.546875 L 46.519531 63.195312 L 47.601562 53.210938 C 47.9375 50.363281 48.109375 47.464844 48.109375 44.597656 " fill-opacity="1" fill-rule="nonzero"/></g><path fill="#000000" d="M 39.273438 58.621094 L 30.898438 58.621094 L 28.65625 44.441406 C 30.644531 43.441406 32.855469 42.914062 35.085938 42.914062 C 37.316406 42.914062 39.527344 43.441406 41.515625 44.441406 Z M 42.808594 43.285156 C 40.449219 41.980469 37.78125 41.289062 35.085938 41.289062 C 32.390625 41.289062 29.71875 41.980469 27.363281 43.285156 C 27.066406 43.449219 26.902344 43.785156 26.957031 44.121094 L 29.398438 59.558594 C 29.460938 59.953125 29.800781 60.246094 30.203125 60.246094 L 39.96875 60.246094 C 40.371094 60.246094 40.710938 59.953125 40.773438 59.558594 L 43.214844 44.121094 C 43.269531 43.785156 43.105469 43.449219 42.808594 43.285156 " fill-opacity="1" fill-rule="nonzero"/><path fill="#000000" d="M 31.109375 45.179688 L 31.621094 46.722656 C 32.742188 46.351562 33.910156 46.164062 35.085938 46.164062 C 36.261719 46.164062 37.425781 46.351562 38.550781 46.722656 L 39.0625 45.179688 C 37.773438 44.753906 36.4375 44.539062 35.085938 44.539062 C 33.734375 44.539062 32.398438 44.753906 31.109375 45.179688 " fill-opacity="1" fill-rule="nonzero"/><path fill="#000000" d="M 32.644531 56.996094 L 37.527344 56.996094 L 37.527344 55.371094 L 32.644531 55.371094 L 32.644531 56.996094 " fill-opacity="1" fill-rule="nonzero"/><path fill="#000000" d="M 36.953125 47.484375 L 35.085938 49.347656 L 33.21875 47.484375 L 32.066406 48.632812 L 33.933594 50.496094 L 32.066406 52.359375 L 33.21875 53.507812 L 35.085938 51.644531 L 36.953125 53.507812 L 38.101562 52.359375 L 36.238281 50.496094 L 38.101562 48.632812 L 36.953125 47.484375 " fill-opacity="1" fill-rule="nonzero"/><g clip-path="url(#8192f4656f)"><path fill="#000000" d="M 66.277344 68.371094 L 66.015625 68.371094 L 66.015625 65.933594 L 67.257812 65.933594 Z M 56.25 65.933594 L 64.386719 65.933594 L 64.386719 68.371094 L 56.25 68.371094 Z M 54.359375 68.371094 L 53.382812 65.933594 L 54.621094 65.933594 L 54.621094 68.371094 Z M 54.621094 64.308594 L 52.992188 64.308594 L 52.992188 61.871094 L 54.621094 61.871094 Z M 56.25 61.871094 L 64.386719 61.871094 L 64.386719 64.308594 L 56.25 64.308594 Z M 67.644531 64.308594 L 66.015625 64.308594 L 66.015625 61.871094 L 67.644531 61.871094 Z M 67.644531 53.746094 L 67.644531 60.246094 L 66.015625 60.246094 L 66.015625 55.371094 L 64.386719 55.371094 L 64.386719 60.246094 L 56.25 60.246094 L 56.25 58.621094 L 54.621094 58.621094 L 54.621094 60.246094 L 52.992188 60.246094 L 52.992188 53.746094 Z M 68.457031 52.121094 L 52.179688 52.121094 C 51.730469 52.121094 51.363281 52.484375 51.363281 52.933594 L 51.363281 65.121094 C 51.363281 65.222656 51.386719 65.328125 51.421875 65.421875 L 53.050781 69.484375 C 53.175781 69.792969 53.472656 69.996094 53.808594 69.996094 L 66.832031 69.996094 C 67.164062 69.996094 67.460938 69.792969 67.585938 69.484375 L 69.214844 65.421875 C 69.253906 65.328125 69.273438 65.222656 69.273438 65.121094 L 69.273438 52.933594 C 69.273438 52.484375 68.90625 52.121094 68.457031 52.121094 " fill-opacity="1" fill-rule="nonzero"/></g><path fill="#000000" d="M 56.25 55.371094 L 54.621094 55.371094 L 54.621094 56.996094 L 56.25 56.996094 L 56.25 55.371094 " fill-opacity="1" fill-rule="nonzero"/></svg>