<svg xmlns="http://www.w3.org/2000/svg" xmlns:xlink="http://www.w3.org/1999/xlink" width="122" zoomAndPan="magnify" viewBox="0 0 91.5 91.499997" height="122" preserveAspectRatio="xMidYMid meet" version="1.0"><defs><clipPath id="79944acd4a"><path d="M 5.289062 5.289062 L 86.210938 5.289062 L 86.210938 86.210938 L 5.289062 86.210938 Z M 5.289062 5.289062 " clip-rule="nonzero"/></clipPath><clipPath id="9434c5f2c6"><path d="M 45.75 5.289062 C 23.402344 5.289062 5.289062 23.402344 5.289062 45.75 C 5.289062 68.097656 23.402344 86.210938 45.75 86.210938 C 68.097656 86.210938 86.210938 68.097656 86.210938 45.75 C 86.210938 23.402344 68.097656 5.289062 45.75 5.289062 " clip-rule="nonzero"/></clipPath><clipPath id="3de7a54a75"><path d="M 32.007812 21 L 59.757812 21 L 59.757812 75.285156 L 32.007812 75.285156 Z M 32.007812 21 " clip-rule="nonzero"/></clipPath><clipPath id="a7f1e2c835"><path d="M 43 16.035156 L 49 16.035156 L 49 23 L 43 23 Z M 43 16.035156 " clip-rule="nonzero"/></clipPath></defs><g clip-path="url(#79944acd4a)"><g clip-path="url(#9434c5f2c6)"><path fill="#ffffff" d="M 5.289062 5.289062 L 86.210938 5.289062 L 86.210938 86.210938 L 5.289062 86.210938 Z M 5.289062 5.289062 " fill-opacity="1" fill-rule="nonzero"/></g></g><path fill="#000000" d="M 47.527344 21.21875 L 47.109375 22.222656 C 46.863281 22.8125 46.402344 23.164062 45.882812 23.164062 C 45.359375 23.164062 44.902344 22.8125 44.652344 22.222656 L 44.234375 21.21875 C 43.757812 21.523438 43.457031 21.964844 43.457031 22.449219 C 43.457031 23.378906 44.542969 24.128906 45.882812 24.128906 C 47.21875 24.128906 48.304688 23.378906 48.304688 22.449219 C 48.304688 21.964844 48.003906 21.523438 47.527344 21.21875 " fill-opacity="1" fill-rule="nonzero"/><g clip-path="url(#3de7a54a75)"><path fill="#000000" d="M 58.800781 68.371094 C 58.800781 69.421875 58.132812 70.375 57.140625 70.738281 C 49.667969 73.476562 42.09375 73.476562 34.621094 70.738281 C 33.628906 70.375 32.960938 69.421875 32.960938 68.371094 L 32.960938 29.378906 C 37.25 31.234375 41.59375 32.171875 45.882812 32.171875 C 50.171875 32.171875 54.511719 31.230469 58.800781 29.378906 Z M 54.207031 73.089844 C 51.992188 73.90625 49.035156 74.355469 45.882812 74.355469 C 42.730469 74.355469 39.773438 73.90625 37.554688 73.089844 C 36.660156 72.761719 35.933594 72.386719 35.398438 71.992188 C 38.882812 73.144531 42.402344 73.730469 45.882812 73.730469 C 49.359375 73.730469 52.878906 73.144531 56.363281 71.992188 C 55.828125 72.386719 55.101562 72.761719 54.207031 73.089844 Z M 33.300781 27.835938 L 33.917969 26.171875 C 34.523438 26.808594 35.648438 27.367188 37.25 27.8125 C 39.5625 28.457031 42.628906 28.8125 45.882812 28.8125 C 49.136719 28.8125 52.199219 28.457031 54.511719 27.8125 C 56.113281 27.367188 57.238281 26.808594 57.84375 26.171875 L 58.464844 27.835938 C 58.585938 28.164062 58.425781 28.527344 58.105469 28.664062 C 49.988281 32.082031 41.773438 32.082031 33.660156 28.664062 C 33.335938 28.527344 33.175781 28.164062 33.300781 27.835938 Z M 59.734375 28.609375 C 59.726562 28.550781 59.707031 28.492188 59.6875 28.4375 L 58.375 24.902344 C 58.304688 23.800781 56.972656 22.859375 54.511719 22.171875 C 52.761719 21.683594 50.574219 21.359375 48.203125 21.230469 C 48.472656 21.515625 48.648438 21.84375 48.703125 22.191406 C 54.179688 22.558594 57.4375 23.953125 57.4375 24.992188 C 57.4375 26.199219 53.042969 27.886719 45.882812 27.886719 C 38.722656 27.886719 34.324219 26.199219 34.324219 24.992188 C 34.324219 23.953125 37.582031 22.558594 43.058594 22.191406 C 43.117188 21.84375 43.289062 21.515625 43.558594 21.230469 C 41.1875 21.359375 39.003906 21.683594 37.25 22.171875 C 34.789062 22.859375 33.460938 23.800781 33.390625 24.902344 L 32.078125 28.433594 C 32.054688 28.492188 32.039062 28.550781 32.027344 28.613281 C 32.023438 28.636719 32.023438 28.660156 32.023438 28.675781 L 32.023438 68.371094 C 32.023438 69.539062 32.625 70.617188 33.578125 71.246094 C 34.015625 72.296875 35.273438 73.238281 37.226562 73.960938 C 39.546875 74.8125 42.621094 75.28125 45.882812 75.28125 C 49.144531 75.28125 52.21875 74.8125 54.535156 73.960938 C 56.488281 73.238281 57.746094 72.296875 58.183594 71.246094 C 59.136719 70.617188 59.742188 69.539062 59.742188 68.371094 L 59.742188 28.671875 C 59.742188 28.652344 59.738281 28.632812 59.734375 28.609375 " fill-opacity="1" fill-rule="nonzero"/></g><path fill="#000000" d="M 52.472656 26.183594 C 50.714844 26.582031 48.375 26.796875 45.882812 26.796875 C 43.386719 26.796875 41.046875 26.582031 39.292969 26.183594 C 37.3125 25.738281 36.785156 25.226562 36.785156 24.996094 C 36.785156 24.761719 37.3125 24.25 39.292969 23.804688 C 40.414062 23.550781 41.773438 23.371094 43.257812 23.273438 C 43.144531 23.074219 43.074219 22.859375 43.046875 22.636719 C 41.589844 22.738281 40.257812 22.921875 39.144531 23.171875 C 37.144531 23.625 36.128906 24.238281 36.128906 24.996094 C 36.128906 25.75 37.144531 26.363281 39.144531 26.816406 C 40.949219 27.222656 43.339844 27.449219 45.882812 27.449219 C 48.421875 27.449219 50.816406 27.222656 52.617188 26.816406 C 54.617188 26.363281 55.632812 25.75 55.632812 24.996094 C 55.632812 24.238281 54.617188 23.625 52.617188 23.171875 C 51.507812 22.921875 50.171875 22.738281 48.714844 22.636719 C 48.6875 22.859375 48.617188 23.074219 48.503906 23.273438 C 49.988281 23.371094 51.351562 23.550781 52.472656 23.804688 C 54.449219 24.25 54.976562 24.761719 54.976562 24.996094 C 54.976562 25.226562 54.449219 25.738281 52.472656 26.183594 " fill-opacity="1" fill-rule="nonzero"/><g clip-path="url(#a7f1e2c835)"><path fill="#000000" d="M 44.757812 17.023438 L 47.003906 17.023438 C 47.414062 17.023438 47.703125 17.417969 47.574219 17.800781 L 47.484375 18.078125 C 47.296875 18.644531 46.757812 19.027344 46.15625 19.027344 L 45.609375 19.027344 C 45.003906 19.027344 44.46875 18.644531 44.277344 18.078125 L 44.1875 17.800781 C 44.058594 17.417969 44.347656 17.023438 44.757812 17.023438 Z M 46.574219 20.96875 L 46.5625 20.96875 C 46.425781 20.96875 46.308594 20.886719 46.253906 20.765625 C 46.203125 20.640625 46.097656 20.507812 45.882812 20.507812 C 45.664062 20.507812 45.558594 20.640625 45.507812 20.765625 C 45.457031 20.886719 45.335938 20.96875 45.203125 20.96875 L 45.1875 20.96875 C 44.96875 20.96875 44.808594 20.761719 44.871094 20.554688 C 44.972656 20.214844 45.230469 19.78125 45.882812 19.78125 C 46.53125 19.78125 46.789062 20.214844 46.890625 20.554688 C 46.953125 20.761719 46.792969 20.96875 46.574219 20.96875 Z M 45.882812 21.445312 C 45.691406 21.445312 45.539062 21.292969 45.539062 21.105469 C 45.539062 20.921875 45.691406 20.769531 45.882812 20.769531 C 46.070312 20.769531 46.222656 20.921875 46.222656 21.105469 C 46.222656 21.292969 46.070312 21.445312 45.882812 21.445312 Z M 44.132812 20.222656 L 44.921875 22.113281 C 45.347656 23.132812 46.414062 23.132812 46.839844 22.113281 L 47.628906 20.222656 L 48.332031 18.53125 C 48.796875 17.421875 48.21875 16.035156 47.292969 16.035156 L 44.46875 16.035156 C 43.542969 16.035156 42.964844 17.421875 43.429688 18.53125 L 44.132812 20.222656 " fill-opacity="1" fill-rule="nonzero"/></g><path fill="#000000" d="M 35.871094 69.53125 C 35.609375 69.53125 35.398438 69.320312 35.398438 69.0625 L 35.398438 60.429688 C 35.398438 60.171875 35.609375 59.964844 35.871094 59.964844 C 36.132812 59.964844 36.34375 60.171875 36.34375 60.429688 L 36.34375 69.0625 C 36.34375 69.320312 36.132812 69.53125 35.871094 69.53125 " fill-opacity="1" fill-rule="nonzero"/><path fill="#000000" d="M 35.871094 59.617188 C 35.609375 59.617188 35.398438 59.410156 35.398438 59.152344 L 35.398438 58.152344 C 35.398438 57.894531 35.609375 57.6875 35.871094 57.6875 C 36.132812 57.6875 36.34375 57.894531 36.34375 58.152344 L 36.34375 59.152344 C 36.34375 59.410156 36.132812 59.617188 35.871094 59.617188 " fill-opacity="1" fill-rule="nonzero"/><path fill="#000000" d="M 35.871094 57.003906 C 35.609375 57.003906 35.398438 56.796875 35.398438 56.539062 L 35.398438 47.90625 C 35.398438 47.648438 35.609375 47.441406 35.871094 47.441406 C 36.132812 47.441406 36.34375 47.648438 36.34375 47.90625 L 36.34375 56.539062 C 36.34375 56.796875 36.132812 57.003906 35.871094 57.003906 " fill-opacity="1" fill-rule="nonzero"/><path fill="#000000" d="M 35.871094 47.09375 C 35.609375 47.09375 35.398438 46.886719 35.398438 46.628906 L 35.398438 45.628906 C 35.398438 45.371094 35.609375 45.164062 35.871094 45.164062 C 36.132812 45.164062 36.34375 45.371094 36.34375 45.628906 L 36.34375 46.628906 C 36.34375 46.886719 36.132812 47.09375 35.871094 47.09375 " fill-opacity="1" fill-rule="nonzero"/></svg>