<svg xmlns="http://www.w3.org/2000/svg" xmlns:xlink="http://www.w3.org/1999/xlink" width="122" zoomAndPan="magnify" viewBox="0 0 91.5 91.499997" height="122" preserveAspectRatio="xMidYMid meet" version="1.0"><defs><clipPath id="62bc7e64ac"><path d="M 5.289062 5.289062 L 86.210938 5.289062 L 86.210938 86.210938 L 5.289062 86.210938 Z M 5.289062 5.289062 " clip-rule="nonzero"/></clipPath><clipPath id="f8d0cf6a2e"><path d="M 45.75 5.289062 C 23.402344 5.289062 5.289062 23.402344 5.289062 45.75 C 5.289062 68.097656 23.402344 86.210938 45.75 86.210938 C 68.097656 86.210938 86.210938 68.097656 86.210938 45.75 C 86.210938 23.402344 68.097656 5.289062 45.75 5.289062 " clip-rule="nonzero"/></clipPath><clipPath id="dc929a0c6d"><path d="M 30.699219 18.386719 L 60.699219 18.386719 L 60.699219 73.136719 L 30.699219 73.136719 Z M 30.699219 18.386719 " clip-rule="nonzero"/></clipPath></defs><g clip-path="url(#62bc7e64ac)"><g clip-path="url(#f8d0cf6a2e)"><path fill="#ffffff" d="M 5.289062 5.289062 L 86.210938 5.289062 L 86.210938 86.210938 L 5.289062 86.210938 Z M 5.289062 5.289062 " fill-opacity="1" fill-rule="nonzero"/></g></g><g clip-path="url(#dc929a0c6d)"><path fill="#000000" d="M 35 30.121094 C 35.078125 30.121094 35.160156 30.128906 35.234375 30.140625 C 34.335938 29.179688 33.597656 28.003906 33.082031 26.667969 C 32.3125 24.683594 32.003906 22.355469 32.125 19.566406 C 32.042969 19.550781 31.957031 19.539062 31.867188 19.523438 C 31.910156 20.214844 31.933594 20.910156 31.949219 21.582031 C 31.972656 22.4375 31.996094 23.316406 32.066406 24.171875 C 32.238281 26.238281 32.664062 27.785156 33.410156 29.039062 C 33.683594 29.5 34.003906 29.914062 34.355469 30.273438 C 34.550781 30.191406 34.757812 30.136719 35 30.121094 Z M 37.519531 31.011719 C 37.75 30.917969 37.984375 30.851562 38.222656 30.800781 C 37.855469 30.589844 37.503906 30.359375 37.15625 30.097656 C 35.621094 28.90625 34.441406 27.207031 33.75 25.179688 C 33.1875 23.535156 32.960938 21.703125 33.058594 19.730469 C 32.941406 19.710938 32.820312 19.691406 32.703125 19.671875 C 32.59375 22.335938 32.894531 24.566406 33.621094 26.453125 C 34.300781 28.214844 35.386719 29.6875 36.707031 30.699219 C 37.007812 30.785156 37.277344 30.890625 37.519531 31.011719 Z M 54.371094 71.058594 C 54.441406 70.835938 54.484375 70.582031 54.515625 70.324219 C 53.550781 70.792969 52.421875 70.898438 51.339844 70.953125 C 49.777344 71.035156 48.207031 71.078125 46.632812 71.078125 C 44.265625 71.078125 41.890625 70.988281 39.539062 70.796875 C 38.34375 70.703125 37.175781 70.570312 36.074219 70.179688 C 36.148438 70.660156 36.253906 71.058594 36.390625 71.175781 C 37.171875 71.691406 43.921875 72.109375 46.328125 72.109375 C 49.0625 72.109375 53.8125 71.632812 54.371094 71.058594 Z M 54.648438 67.949219 C 54.757812 66.550781 54.859375 65.144531 54.960938 63.738281 C 54.476562 64.113281 53.90625 64.4375 53.265625 64.691406 C 51.839844 65.269531 49.992188 65.308594 48.363281 65.335938 C 48.105469 65.34375 47.855469 65.347656 47.613281 65.359375 C 46.238281 65.398438 44.84375 65.441406 43.441406 65.441406 C 41.671875 65.441406 39.890625 65.371094 38.128906 65.15625 C 37.449219 65.070312 36.667969 64.953125 35.957031 64.617188 C 35.785156 64.535156 35.621094 64.4375 35.472656 64.332031 C 35.585938 65.355469 35.703125 66.367188 35.832031 67.386719 C 35.855469 67.554688 35.871094 67.820312 35.886719 68.148438 C 35.902344 68.417969 35.933594 68.90625 35.980469 69.414062 C 37.09375 69.878906 38.324219 70.015625 39.59375 70.113281 C 43.476562 70.425781 47.414062 70.480469 51.304688 70.269531 C 52.511719 70.207031 53.671875 70.09375 54.585938 69.503906 C 54.59375 69.304688 54.601562 69.113281 54.605469 68.917969 C 54.613281 68.578125 54.625 68.257812 54.648438 67.949219 Z M 56.226562 42.828125 C 56.003906 42.75 55.703125 42.671875 55.390625 42.625 C 54.753906 42.535156 54.085938 42.539062 53.433594 42.539062 L 42.484375 42.558594 C 40.894531 42.558594 39.246094 42.5625 37.628906 42.589844 C 37.527344 42.589844 37.382812 42.589844 37.207031 42.589844 C 34.46875 42.582031 33.722656 42.792969 33.542969 42.941406 C 33.671875 43.019531 34.1875 43.050781 34.363281 43.058594 L 34.402344 43.0625 C 34.886719 43.089844 35.367188 43.128906 35.851562 43.167969 C 36.359375 43.203125 36.871094 43.242188 37.382812 43.273438 C 40.90625 43.484375 44.488281 43.542969 48.03125 43.445312 C 50.816406 43.371094 54.894531 43.117188 56.226562 42.828125 Z M 56.089844 46.488281 C 56.152344 45.492188 56.210938 44.488281 56.277344 43.488281 C 54.320312 43.925781 49.667969 44.085938 48.046875 44.128906 C 46.9375 44.160156 45.828125 44.175781 44.707031 44.175781 C 42.246094 44.175781 39.78125 44.101562 37.34375 43.957031 C 36.828125 43.925781 36.3125 43.886719 35.800781 43.84375 C 35.316406 43.808594 34.84375 43.773438 34.359375 43.742188 L 34.320312 43.742188 C 34.101562 43.730469 33.808594 43.710938 33.535156 43.636719 C 33.914062 48.160156 34.34375 53.019531 34.820312 57.96875 C 35.003906 59.835938 35.175781 61.601562 35.363281 63.328125 C 35.589844 63.59375 35.886719 63.824219 36.25 63.996094 C 36.867188 64.292969 37.585938 64.398438 38.210938 64.476562 C 41.3125 64.859375 44.507812 64.765625 47.59375 64.675781 C 47.835938 64.667969 48.089844 64.660156 48.351562 64.652344 C 49.917969 64.621094 51.699219 64.589844 53.011719 64.058594 C 53.832031 63.726562 54.5 63.285156 55.03125 62.753906 C 55.34375 58.296875 55.628906 53.832031 55.902344 49.472656 Z M 56.808594 34.960938 C 56.84375 34.417969 56.878906 33.871094 56.910156 33.328125 C 56.632812 33.335938 56.367188 33.304688 56.117188 33.273438 C 55.859375 33.28125 55.65625 33.222656 55.460938 33.167969 C 55.382812 33.140625 55.304688 33.117188 55.21875 33.101562 C 55.023438 33.054688 54.761719 33.027344 54.609375 33.148438 C 54.546875 33.195312 54.492188 33.273438 54.425781 33.371094 C 54.375 33.449219 54.320312 33.53125 54.253906 33.601562 C 53.960938 33.933594 53.496094 34.125 52.972656 34.125 C 52.613281 34.121094 52.246094 34.042969 51.921875 33.949219 C 51.410156 34.296875 50.621094 34.589844 49.894531 34.375 C 49.78125 34.339844 49.667969 34.300781 49.554688 34.257812 C 49.390625 34.195312 49.230469 34.136719 49.085938 34.121094 C 48.882812 34.097656 48.660156 34.152344 48.429688 34.210938 C 48.300781 34.238281 48.175781 34.269531 48.050781 34.292969 C 47.332031 34.414062 46.5625 34.238281 45.960938 33.824219 C 45.398438 33.847656 44.824219 33.644531 44.332031 33.25 C 44.132812 33.320312 43.914062 33.398438 43.695312 33.472656 C 43.40625 33.578125 43.117188 33.675781 42.867188 33.761719 C 42.597656 33.847656 42.226562 33.976562 41.847656 33.945312 C 41.710938 34.242188 41.425781 34.492188 41.070312 34.601562 C 40.710938 34.714844 40.34375 34.6875 40.027344 34.648438 C 39.625 34.894531 39.152344 34.90625 38.765625 34.914062 C 38.703125 34.917969 38.644531 34.917969 38.582031 34.917969 C 38.386719 34.917969 38.179688 34.90625 37.976562 34.84375 C 37.765625 34.785156 37.582031 34.679688 37.441406 34.542969 C 37.03125 34.699219 36.515625 34.679688 36.058594 34.660156 C 35.910156 34.652344 35.769531 34.644531 35.648438 34.644531 C 35.558594 34.644531 35.476562 34.648438 35.402344 34.65625 C 35.082031 34.691406 34.746094 34.554688 34.539062 34.304688 C 34.4375 34.183594 34.371094 34.046875 34.335938 33.894531 C 34.332031 33.898438 34.328125 33.898438 34.320312 33.898438 C 34.144531 33.9375 33.972656 33.980469 33.835938 33.988281 C 33.714844 33.996094 33.605469 33.945312 33.535156 33.84375 C 33.4375 33.707031 33.351562 33.558594 33.285156 33.40625 C 33.105469 33.449219 32.914062 33.488281 32.726562 33.503906 C 32.777344 33.808594 32.824219 34.089844 32.839844 34.316406 C 32.851562 34.566406 32.863281 34.820312 32.871094 35.070312 C 32.894531 35.585938 32.917969 36.117188 32.957031 36.632812 C 33.105469 38.417969 33.257812 40.300781 33.421875 42.253906 C 34.113281 41.972656 35.414062 41.90625 37.210938 41.910156 C 37.378906 41.910156 37.523438 41.910156 37.617188 41.910156 C 39.238281 41.875 40.890625 41.871094 42.484375 41.871094 L 53.433594 41.851562 C 54.105469 41.851562 54.804688 41.847656 55.492188 41.953125 C 55.65625 41.976562 56.011719 42.035156 56.359375 42.152344 C 56.488281 40.109375 56.617188 38.070312 56.746094 36.03125 Z M 57.128906 24.65625 C 57.332031 24.066406 57.457031 23.457031 57.5 22.851562 C 49.492188 22.234375 41.46875 21.214844 33.5625 19.820312 C 33.476562 21.703125 33.699219 23.449219 34.234375 25.011719 C 34.316406 25.25 34.40625 25.488281 34.503906 25.71875 C 39.695312 23.03125 41.351562 22.300781 41.417969 22.421875 C 41.480469 22.550781 39.925781 23.484375 34.71875 26.1875 C 35.390625 27.597656 36.335938 28.8125 37.46875 29.6875 C 38.015625 30.105469 38.589844 30.445312 39.183594 30.726562 C 39.347656 30.734375 39.503906 30.75 39.660156 30.785156 C 42.132812 25.203125 42.996094 23.519531 43.125 23.574219 C 43.25 23.632812 42.613281 25.351562 40.246094 30.726562 C 40.855469 30.574219 41.5625 30.601562 42.222656 30.828125 C 42.347656 30.871094 42.449219 30.894531 42.539062 30.917969 C 42.738281 30.96875 42.914062 31.011719 43.128906 31.171875 C 43.765625 30.777344 44.652344 30.648438 45.375 30.832031 C 45.457031 26.714844 45.582031 25.402344 45.710938 25.402344 C 45.84375 25.402344 45.925781 26.710938 45.882812 30.824219 C 46.550781 30.632812 47.34375 30.6875 47.996094 30.980469 C 48.625 30.839844 49.492188 30.820312 50.132812 30.867188 C 50.152344 30.84375 50.171875 30.816406 50.195312 30.789062 C 50.367188 30.570312 50.582031 30.296875 51.011719 30.199219 C 51.117188 30.175781 51.226562 30.167969 51.328125 30.167969 C 50.464844 28.042969 49.742188 26.6875 49.308594 25.820312 C 48.828125 24.882812 48.660156 24.515625 48.722656 24.476562 C 48.78125 24.441406 49.058594 24.742188 49.621094 25.636719 C 50.152344 26.5 50.972656 27.917969 51.890625 30.195312 C 52.625 29.847656 53.304688 29.449219 53.917969 28.992188 C 54.300781 28.699219 54.664062 28.386719 54.992188 28.050781 C 53.820312 26.308594 52.859375 25.304688 52.289062 24.667969 C 51.703125 24.03125 51.484375 23.773438 51.535156 23.71875 C 51.578125 23.667969 51.878906 23.828125 52.542969 24.410156 C 53.175781 24.980469 54.179688 25.949219 55.355469 27.671875 C 56.035156 26.902344 56.574219 26.046875 56.945312 25.152344 C 54.875 23.667969 54.296875 23.113281 54.378906 23.003906 C 54.457031 22.890625 55.144531 23.246094 57.128906 24.65625 Z M 57.757812 32.25 C 57.875 32.046875 57.816406 31.621094 57.785156 31.414062 C 57.765625 31.257812 57.660156 31.105469 57.519531 31.03125 C 57.40625 30.96875 57.085938 30.992188 56.90625 31.078125 C 56.761719 31.148438 56.589844 31.109375 56.488281 30.980469 C 56.292969 30.726562 55.859375 30.71875 55.683594 30.726562 C 55.582031 30.730469 55.449219 30.761719 55.308594 30.796875 C 54.976562 30.882812 54.558594 30.984375 54.214844 30.746094 C 54 30.589844 53.722656 30.515625 53.453125 30.539062 C 53.199219 30.5625 52.871094 30.726562 52.675781 30.925781 C 52.601562 30.992188 52.503906 31.03125 52.40625 31.027344 C 52.214844 31.011719 52.03125 30.972656 51.859375 30.933594 C 51.605469 30.875 51.367188 30.820312 51.160156 30.867188 C 50.972656 30.910156 50.882812 31.015625 50.730469 31.210938 C 50.660156 31.296875 50.59375 31.382812 50.515625 31.464844 C 50.441406 31.539062 50.339844 31.574219 50.238281 31.566406 C 49.625 31.5 48.648438 31.515625 48.042969 31.671875 C 47.960938 31.691406 47.878906 31.683594 47.804688 31.644531 C 47.199219 31.339844 46.347656 31.316406 45.777344 31.589844 C 45.6875 31.636719 45.574219 31.636719 45.480469 31.589844 C 44.871094 31.296875 43.863281 31.425781 43.324219 31.867188 C 43.191406 31.980469 42.992188 31.972656 42.867188 31.847656 C 42.679688 31.660156 42.597656 31.636719 42.375 31.582031 C 42.273438 31.554688 42.148438 31.523438 42.003906 31.472656 C 41.339844 31.246094 40.597656 31.265625 40.058594 31.515625 C 39.980469 31.550781 39.890625 31.554688 39.808594 31.527344 C 39.160156 31.308594 38.371094 31.375 37.640625 31.703125 C 37.539062 31.746094 37.425781 31.742188 37.328125 31.683594 C 36.914062 31.445312 36.355469 31.277344 35.683594 31.179688 C 35.574219 31.164062 35.480469 31.097656 35.429688 31 C 35.367188 30.882812 35.191406 30.796875 35.023438 30.808594 C 34.78125 30.816406 34.589844 30.882812 34.457031 30.996094 C 34.320312 31.117188 34.113281 31.113281 33.984375 30.980469 C 33.808594 30.796875 33.550781 30.679688 33.296875 30.671875 C 33.113281 30.667969 32.90625 30.773438 32.6875 30.886719 C 32.617188 30.921875 32.546875 30.960938 32.472656 30.992188 C 32.085938 31.175781 31.800781 31.492188 31.714844 31.84375 C 31.636719 32.195312 31.785156 32.589844 32.066406 32.742188 C 32.441406 32.949219 33.132812 32.742188 33.398438 32.664062 C 33.484375 32.640625 33.578125 32.648438 33.65625 32.691406 C 33.738281 32.734375 33.796875 32.804688 33.820312 32.894531 C 33.859375 33.027344 33.914062 33.15625 33.980469 33.273438 C 34.042969 33.261719 34.105469 33.25 34.167969 33.230469 C 34.34375 33.191406 34.515625 33.152344 34.648438 33.140625 C 34.765625 33.128906 34.867188 33.179688 34.941406 33.265625 C 35.007812 33.355469 35.03125 33.46875 35.003906 33.578125 C 34.972656 33.671875 35 33.789062 35.0625 33.867188 C 35.125 33.941406 35.234375 33.984375 35.332031 33.976562 C 35.5625 33.953125 35.816406 33.964844 36.085938 33.976562 C 36.535156 33.996094 37.09375 34.019531 37.324219 33.832031 C 37.386719 33.78125 37.460938 33.757812 37.539062 33.757812 C 37.566406 33.757812 37.59375 33.761719 37.621094 33.765625 C 37.722656 33.792969 37.808594 33.863281 37.847656 33.964844 C 37.894531 34.058594 38.011719 34.148438 38.160156 34.1875 C 38.335938 34.238281 38.546875 34.230469 38.753906 34.230469 C 39.113281 34.222656 39.484375 34.214844 39.734375 34.023438 C 39.800781 33.96875 39.894531 33.945312 39.980469 33.957031 C 40.285156 33.992188 40.601562 34.03125 40.863281 33.949219 C 41.054688 33.890625 41.257812 33.71875 41.257812 33.539062 C 41.257812 33.425781 41.3125 33.320312 41.40625 33.253906 C 41.5 33.191406 41.617188 33.179688 41.722656 33.222656 C 41.976562 33.324219 42.304688 33.226562 42.652344 33.109375 C 42.898438 33.027344 43.183594 32.929688 43.472656 32.828125 C 43.761719 32.722656 44.050781 32.625 44.300781 32.539062 C 44.414062 32.5 44.546875 32.53125 44.636719 32.617188 C 45.050781 32.996094 45.554688 33.1875 46.019531 33.128906 C 46.109375 33.121094 46.199219 33.144531 46.269531 33.199219 C 46.730469 33.558594 47.359375 33.714844 47.9375 33.617188 C 48.046875 33.597656 48.15625 33.574219 48.269531 33.542969 C 48.546875 33.476562 48.835938 33.410156 49.15625 33.4375 C 49.390625 33.464844 49.601562 33.542969 49.796875 33.621094 C 49.894531 33.65625 49.984375 33.6875 50.082031 33.71875 C 50.597656 33.867188 51.253906 33.609375 51.652344 33.300781 C 51.738281 33.238281 51.851562 33.214844 51.953125 33.25 C 52.285156 33.34375 52.636719 33.441406 52.96875 33.441406 C 52.96875 33.441406 52.96875 33.441406 52.972656 33.441406 C 53.300781 33.441406 53.578125 33.335938 53.742188 33.152344 C 53.789062 33.097656 53.828125 33.039062 53.867188 32.980469 C 53.949219 32.863281 54.046875 32.722656 54.1875 32.609375 C 54.476562 32.382812 54.875 32.320312 55.367188 32.429688 C 55.464844 32.457031 55.5625 32.480469 55.652344 32.507812 C 55.824219 32.558594 55.953125 32.597656 56.109375 32.589844 C 56.132812 32.585938 56.152344 32.585938 56.175781 32.589844 C 56.496094 32.632812 56.828125 32.671875 57.125 32.621094 C 57.414062 32.574219 57.648438 32.433594 57.757812 32.25 Z M 58.613281 22.9375 C 58.414062 22.921875 58.210938 22.90625 58.007812 22.890625 C 57.835938 25.320312 56.429688 27.742188 54.21875 29.402344 C 54.007812 29.5625 53.785156 29.710938 53.554688 29.859375 C 53.757812 29.859375 53.960938 29.894531 54.152344 29.957031 C 56.691406 28.226562 58.378906 25.609375 58.613281 22.9375 Z M 59.488281 23.003906 C 59.390625 22.996094 59.292969 22.988281 59.195312 22.980469 C 58.957031 25.703125 57.308594 28.371094 54.816406 30.199219 C 54.921875 30.191406 55.042969 30.160156 55.144531 30.132812 C 55.3125 30.09375 55.484375 30.050781 55.652344 30.042969 C 55.960938 30.03125 56.230469 30.074219 56.464844 30.164062 C 57.042969 29.640625 57.554688 28.988281 57.957031 28.230469 C 58.820312 26.632812 59.183594 24.800781 59.488281 23.003906 Z M 60.492188 22.210938 C 60.582031 22.328125 60.617188 22.476562 60.59375 22.613281 C 60.261719 24.578125 59.886719 26.800781 58.855469 28.722656 C 58.527344 29.335938 58.136719 29.890625 57.703125 30.375 C 57.75 30.394531 57.796875 30.402344 57.84375 30.425781 C 58.175781 30.605469 58.410156 30.949219 58.460938 31.320312 C 58.503906 31.625 58.582031 32.191406 58.347656 32.59375 C 58.25 32.753906 58.113281 32.890625 57.953125 33.003906 C 57.914062 33.679688 57.871094 34.351562 57.832031 35.023438 L 57.761719 36.09375 C 57.546875 39.578125 57.332031 43.070312 57.109375 46.558594 L 56.921875 49.539062 C 56.539062 55.601562 56.144531 61.867188 55.667969 68.027344 C 55.644531 68.3125 55.636719 68.621094 55.628906 68.949219 C 55.605469 69.785156 55.582031 70.65625 55.328125 71.421875 C 54.769531 73.089844 46.414062 73.136719 46.328125 73.136719 C 45.464844 73.136719 37.101562 72.878906 35.824219 72.023438 C 35.109375 71.550781 34.972656 70.015625 34.867188 68.207031 C 34.851562 67.910156 34.839844 67.652344 34.820312 67.515625 C 34.429688 64.441406 34.128906 61.421875 33.808594 58.070312 C 33.066406 50.425781 32.445312 42.988281 31.9375 36.714844 C 31.894531 36.183594 31.875 35.636719 31.851562 35.113281 C 31.839844 34.863281 31.832031 34.617188 31.816406 34.371094 C 31.808594 34.195312 31.757812 33.914062 31.707031 33.625 C 31.6875 33.511719 31.671875 33.398438 31.648438 33.285156 C 31.160156 32.957031 30.90625 32.304688 31.054688 31.683594 C 31.1875 31.132812 31.609375 30.644531 32.183594 30.371094 C 32.25 30.339844 32.3125 30.3125 32.378906 30.277344 C 32.523438 30.199219 32.683594 30.117188 32.859375 30.0625 C 32.742188 29.902344 32.632812 29.734375 32.53125 29.566406 C 31.703125 28.171875 31.234375 26.484375 31.050781 24.257812 C 30.972656 23.375 30.949219 22.476562 30.929688 21.609375 C 30.902344 20.734375 30.878906 19.824219 30.800781 18.941406 C 30.789062 18.78125 30.851562 18.625 30.96875 18.519531 C 31.085938 18.414062 31.246094 18.363281 31.402344 18.394531 C 40.859375 20.15625 50.527344 21.375 60.125 22.019531 C 60.269531 22.03125 60.402344 22.097656 60.492188 22.210938 " fill-opacity="1" fill-rule="nonzero"/></g></svg>