<svg xmlns="http://www.w3.org/2000/svg" xmlns:xlink="http://www.w3.org/1999/xlink" width="122" zoomAndPan="magnify" viewBox="0 0 91.5 91.499997" height="122" preserveAspectRatio="xMidYMid meet" version="1.0"><defs><clipPath id="7a4cb664c3"><path d="M 5.289062 5.289062 L 86.210938 5.289062 L 86.210938 86.210938 L 5.289062 86.210938 Z M 5.289062 5.289062 " clip-rule="nonzero"/></clipPath><clipPath id="f46b9c1417"><path d="M 45.75 5.289062 C 23.402344 5.289062 5.289062 23.402344 5.289062 45.75 C 5.289062 68.097656 23.402344 86.210938 45.75 86.210938 C 68.097656 86.210938 86.210938 68.097656 86.210938 45.75 C 86.210938 23.402344 68.097656 5.289062 45.75 5.289062 " clip-rule="nonzero"/></clipPath><clipPath id="5b7112dd51"><path d="M 23.179688 24.988281 L 68.179688 24.988281 L 68.179688 66.238281 L 23.179688 66.238281 Z M 23.179688 24.988281 " clip-rule="nonzero"/></clipPath></defs><g clip-path="url(#7a4cb664c3)"><g clip-path="url(#f46b9c1417)"><path fill="#ffffff" d="M 5.289062 5.289062 L 86.210938 5.289062 L 86.210938 86.210938 L 5.289062 86.210938 Z M 5.289062 5.289062 " fill-opacity="1" fill-rule="nonzero"/></g></g><g clip-path="url(#5b7112dd51)"><path fill="#000000" d="M 67.902344 25.285156 C 67.730469 25.085938 67.515625 24.988281 67.25 24.988281 L 24.125 24.988281 C 24 24.988281 23.878906 25.011719 23.765625 25.066406 C 23.648438 25.117188 23.550781 25.191406 23.46875 25.285156 C 23.386719 25.382812 23.328125 25.488281 23.292969 25.609375 C 23.261719 25.730469 23.253906 25.851562 23.269531 25.976562 L 29.308594 65.507812 C 29.339844 65.714844 29.4375 65.890625 29.597656 66.027344 C 29.761719 66.167969 29.949219 66.238281 30.160156 66.238281 L 61.210938 66.238281 C 61.425781 66.238281 61.613281 66.167969 61.773438 66.027344 C 61.9375 65.890625 62.03125 65.714844 62.066406 65.507812 L 68.101562 25.976562 C 68.140625 25.714844 68.074219 25.484375 67.902344 25.285156 Z M 50.585938 43.566406 C 49.042969 43.3125 47.886719 42.949219 46.753906 42.59375 C 45.4375 42.179688 44.078125 41.757812 42.191406 41.519531 L 42.902344 37.5 C 42.941406 37.265625 43.0625 37.078125 43.257812 36.945312 C 43.453125 36.808594 43.667969 36.761719 43.902344 36.800781 L 50.695312 37.996094 C 50.929688 38.035156 51.117188 38.152344 51.253906 38.347656 C 51.390625 38.542969 51.4375 38.757812 51.394531 38.988281 Z M 46.234375 44.230469 C 47.433594 44.609375 48.65625 44.992188 50.285156 45.261719 L 50.199219 45.761719 C 50.15625 45.996094 50.039062 46.179688 49.84375 46.316406 C 49.648438 46.453125 49.433594 46.5 49.199219 46.457031 L 42.402344 45.261719 C 42.167969 45.222656 41.984375 45.105469 41.847656 44.910156 C 41.710938 44.714844 41.660156 44.503906 41.703125 44.269531 L 41.890625 43.210938 C 43.664062 43.429688 44.929688 43.820312 46.234375 44.230469 Z M 40.433594 45.894531 C 40.839844 46.480469 41.398438 46.835938 42.101562 46.957031 L 48.898438 48.152344 C 49.046875 48.175781 49.199219 48.191406 49.347656 48.191406 C 49.652344 48.1875 49.945312 48.136719 50.234375 48.035156 C 50.519531 47.929688 50.777344 47.78125 51.011719 47.585938 C 51.242188 47.390625 51.4375 47.160156 51.585938 46.898438 C 51.738281 46.636719 51.84375 46.359375 51.894531 46.058594 L 52 45.476562 C 52.921875 45.5625 53.964844 45.613281 55.175781 45.613281 C 58.078125 45.597656 60.886719 45.074219 63.597656 44.035156 L 61.257812 59.363281 L 58.464844 59.363281 C 58.570312 59.085938 58.621094 58.796875 58.625 58.503906 L 58.625 51.628906 C 58.625 51.285156 58.558594 50.957031 58.425781 50.640625 C 58.296875 50.324219 58.109375 50.046875 57.867188 49.804688 C 57.625 49.5625 57.34375 49.378906 57.027344 49.246094 C 56.710938 49.117188 56.378906 49.050781 56.035156 49.050781 L 49.136719 49.050781 C 48.792969 49.050781 48.464844 49.117188 48.148438 49.246094 C 47.832031 49.378906 47.550781 49.5625 47.308594 49.804688 C 47.066406 50.046875 46.878906 50.324219 46.746094 50.640625 C 46.617188 50.957031 46.550781 51.285156 46.550781 51.628906 L 46.550781 58.503906 C 46.550781 58.796875 46.605469 59.085938 46.707031 59.363281 L 41.054688 59.363281 L 43.230469 58.574219 C 43.554688 58.457031 43.839844 58.28125 44.09375 58.050781 C 44.347656 57.820312 44.546875 57.550781 44.691406 57.238281 C 44.835938 56.929688 44.914062 56.605469 44.929688 56.261719 C 44.945312 55.921875 44.894531 55.589844 44.777344 55.269531 L 42.417969 48.808594 C 42.300781 48.488281 42.125 48.203125 41.894531 47.949219 C 41.660156 47.699219 41.390625 47.5 41.078125 47.355469 C 40.769531 47.210938 40.441406 47.132812 40.097656 47.117188 C 39.757812 47.101562 39.421875 47.152344 39.101562 47.269531 L 32.617188 49.621094 C 32.292969 49.738281 32.007812 49.910156 31.753906 50.140625 C 31.5 50.371094 31.304688 50.644531 31.15625 50.953125 C 31.011719 51.261719 30.933594 51.589844 30.917969 51.929688 C 30.902344 52.269531 30.953125 52.601562 31.070312 52.921875 L 33.421875 59.363281 L 30.113281 59.363281 L 28 45.515625 C 31.398438 43.839844 34.996094 43.015625 38.785156 43.035156 C 39.277344 43.035156 39.734375 43.046875 40.164062 43.066406 L 40.003906 43.96875 C 39.878906 44.671875 40.019531 45.3125 40.433594 45.894531 Z M 48.273438 58.503906 L 48.273438 51.628906 C 48.273438 51.390625 48.359375 51.1875 48.527344 51.019531 C 48.695312 50.851562 48.898438 50.769531 49.136719 50.769531 L 56.035156 50.769531 C 56.273438 50.769531 56.476562 50.851562 56.648438 51.019531 C 56.816406 51.1875 56.898438 51.390625 56.898438 51.628906 L 56.898438 58.503906 C 56.898438 58.738281 56.816406 58.941406 56.648438 59.109375 C 56.476562 59.277344 56.273438 59.363281 56.035156 59.363281 L 49.136719 59.363281 C 48.898438 59.363281 48.695312 59.277344 48.527344 59.109375 C 48.359375 58.941406 48.273438 58.738281 48.273438 58.503906 Z M 42.640625 56.957031 L 36.15625 59.308594 C 35.933594 59.390625 35.714844 59.382812 35.496094 59.28125 C 35.28125 59.179688 35.132812 59.019531 35.050781 58.796875 L 32.691406 52.335938 C 32.609375 52.113281 32.621094 51.894531 32.722656 51.679688 C 32.820312 51.464844 32.984375 51.316406 33.207031 51.234375 L 39.691406 48.882812 C 39.785156 48.847656 39.886719 48.832031 39.988281 48.832031 C 40.167969 48.832031 40.332031 48.882812 40.480469 48.984375 C 40.628906 49.089844 40.734375 49.226562 40.796875 49.394531 L 43.15625 55.855469 C 43.238281 56.078125 43.226562 56.296875 43.128906 56.511719 C 43.027344 56.726562 42.863281 56.875 42.640625 56.957031 Z M 30.902344 64.519531 L 30.378906 61.082031 L 60.996094 61.082031 L 60.472656 64.519531 Z M 63.902344 42.0625 C 61.03125 43.273438 58.097656 43.894531 55.175781 43.894531 C 54.085938 43.894531 53.140625 43.851562 52.300781 43.777344 L 53.09375 39.289062 C 53.152344 38.953125 53.148438 38.617188 53.074219 38.28125 C 53 37.949219 52.863281 37.640625 52.664062 37.363281 C 52.46875 37.082031 52.226562 36.851562 51.9375 36.667969 C 51.648438 36.484375 51.332031 36.359375 50.996094 36.300781 L 44.199219 35.109375 C 43.863281 35.050781 43.527344 35.058594 43.191406 35.132812 C 42.855469 35.207031 42.546875 35.339844 42.269531 35.539062 C 41.988281 35.734375 41.753906 35.976562 41.570312 36.261719 C 41.386719 36.550781 41.261719 36.863281 41.203125 37.199219 L 40.464844 41.363281 C 39.941406 41.335938 39.394531 41.316406 38.785156 41.316406 C 34.917969 41.296875 31.234375 42.105469 27.730469 43.734375 L 25.128906 26.707031 L 66.246094 26.707031 Z M 63.902344 42.0625 " fill-opacity="1" fill-rule="nonzero"/></g><path fill="#000000" d="M 27.546875 31.132812 C 27.585938 31.367188 27.699219 31.554688 27.890625 31.695312 C 28.082031 31.835938 28.296875 31.886719 28.53125 31.851562 C 28.765625 31.816406 28.953125 31.703125 29.09375 31.511719 C 29.238281 31.320312 29.289062 31.109375 29.253906 30.875 L 28.992188 29.15625 C 28.957031 28.921875 28.84375 28.734375 28.648438 28.59375 C 28.457031 28.449219 28.246094 28.398438 28.007812 28.433594 C 27.773438 28.46875 27.585938 28.582031 27.445312 28.773438 C 27.304688 28.964844 27.25 29.179688 27.285156 29.414062 Z M 27.546875 31.132812 " fill-opacity="1" fill-rule="nonzero"/><path fill="#000000" d="M 27.941406 33.710938 L 28.730469 38.867188 C 28.765625 39.101562 28.878906 39.289062 29.070312 39.429688 C 29.261719 39.570312 29.476562 39.621094 29.710938 39.585938 C 29.949219 39.550781 30.136719 39.4375 30.277344 39.246094 C 30.417969 39.054688 30.472656 38.84375 30.433594 38.605469 L 29.648438 33.449219 C 29.613281 33.214844 29.5 33.027344 29.304688 32.886719 C 29.113281 32.746094 28.902344 32.695312 28.664062 32.730469 C 28.429688 32.765625 28.242188 32.878906 28.101562 33.070312 C 27.957031 33.261719 27.90625 33.476562 27.941406 33.710938 Z M 27.941406 33.710938 " fill-opacity="1" fill-rule="nonzero"/><path fill="#000000" d="M 58.625 47.332031 L 60.351562 47.332031 L 60.351562 49.050781 L 58.625 49.050781 Z M 58.625 47.332031 " fill-opacity="1" fill-rule="nonzero"/><path fill="#000000" d="M 32.75 45.613281 L 34.472656 45.613281 L 34.472656 47.332031 L 32.75 47.332031 Z M 32.75 45.613281 " fill-opacity="1" fill-rule="nonzero"/><path fill="#000000" d="M 59.488281 53.347656 L 61.210938 53.347656 L 61.210938 55.066406 L 59.488281 55.066406 Z M 59.488281 53.347656 " fill-opacity="1" fill-rule="nonzero"/></svg>